<?xml version="1.0" encoding="iso-8859-1"?>
<!-- Generator: Adobe Illustrator 19.0.0, SVG Export Plug-In . SVG Version: 6.00 Build 0)  -->
<svg version="1.1" id="Layer_1" xmlns="http://www.w3.org/2000/svg" xmlns:xlink="http://www.w3.org/1999/xlink" x="0px" y="0px"
	 viewBox="0 0 512 512" style="enable-background:new 0 0 512 512;" xml:space="preserve">
<g>
	<g>
		<g>
			<rect x="138.796" y="361.02" width="24.824" height="16.428"/>
			<rect x="184.083" y="162.281" width="24.094" height="16.428"/>
			<rect x="302.362" y="147.095" width="24.094" height="16.428"/>
			<rect x="343.431" y="338.021" width="24.094" height="16.428"/>
			<rect x="383.567" y="371.654" width="24.094" height="16.428"/>
			<rect x="353.105" y="266.42" width="24.094" height="16.428"/>
			<path d="M511.014,399.906l-29.825-82.398c-3.704-10.232-13.503-17.105-24.385-17.105h-15.888l-34.995-88.809
				c-3.932-9.978-13.403-16.426-24.127-16.426H368.02l-25.546-86.636c-3.23-10.951-13.457-18.597-24.874-18.597H194.401
				c-11.416,0-21.645,7.646-24.874,18.597l-25.546,86.636h-13.775c-10.725,0-20.195,6.448-24.128,16.425l-34.995,88.81H55.195
				c-10.882,0-20.68,6.873-24.385,17.105L0.986,399.906c-1.832,5.061-1.081,10.713,2.011,15.12s8.15,7.039,13.534,7.039h478.939
				c5.383,0,10.443-2.631,13.534-7.039C512.095,410.62,512.847,404.967,511.014,399.906z M290.212,106.362h27.387
				c4.185,0,7.933,2.804,9.117,6.816l24.176,81.99h-60.68V106.362z M238.216,106.362h35.569v17.556h-35.569V106.362z
				 M238.216,140.345h35.569v20.84h-35.569V140.345z M238.216,177.614h35.569v17.555h-35.569V177.614z M227.841,211.596h56.318
				v17.556h-56.318V211.596z M227.841,245.579h56.318v20.84h-56.318V245.579z M227.841,282.848h56.318v17.556h-56.318V282.848z
				 M185.285,113.178c1.184-4.013,4.933-6.816,9.117-6.816h27.387v88.807H161.11L185.285,113.178z M195.218,405.636H16.487
				c-0.025-0.014-0.064-0.069-0.054-0.138l29.825-82.398c1.357-3.75,4.949-6.27,8.938-6.27h140.022V405.636z M211.414,300.403
				h-0.001H88.741l32.623-82.787c1.441-3.657,4.912-6.02,8.844-6.02h81.207V300.403z M300.355,405.636h-88.709v-17.555h88.709
				V405.636z M300.355,371.654h-88.709v-20.841h88.709V371.654z M300.355,334.385h-88.709v-17.555h88.709V334.385z M300.587,211.596
				h81.207c3.931,0,7.401,2.363,8.842,6.021l32.623,82.786H300.587V211.596z M495.469,405.637H316.782v-88.806h140.022
				c3.989,0,7.581,2.52,8.938,6.27l29.839,82.439C495.577,405.567,495.538,405.622,495.469,405.637z"/>
			<rect x="427.659" y="349.521" width="24.094" height="16.428"/>
			<polygon points="124.762,331.45 124.761,331.45 99.938,331.45 99.938,347.878 124.762,347.878 			"/>
			<rect x="159.98" y="275.766" width="24.094" height="16.428"/>
			<rect x="326.821" y="229.151" width="24.094" height="16.428"/>
			<rect x="58.503" y="371.654" width="24.094" height="16.428"/>
			<rect x="129.315" y="240.003" width="24.094" height="16.428"/>
		</g>
	</g>
</g>
<g>
</g>
<g>
</g>
<g>
</g>
<g>
</g>
<g>
</g>
<g>
</g>
<g>
</g>
<g>
</g>
<g>
</g>
<g>
</g>
<g>
</g>
<g>
</g>
<g>
</g>
<g>
</g>
<g>
</g>
</svg>
