<svg version="1.1" id="bingLogo" xmlns="http://www.w3.org/2000/svg" xmlns:xlink="http://www.w3.org/1999/xlink" x="0px" y="0px"
	 width="100%" height="auto" viewBox="0 0 777.597 300" enable-background="new 0 0 777.597 300" xml:space="preserve">
<g id="bing-logo">
	<path class="bing-logo" fill="#008373" d="M0,0c22.828,6.948,45.648,13.92,68.445,20.954c-0.031,56.321,0.055,112.642-0.039,168.955
		c-22.157,19.635-44.204,39.395-66.314,59.077c54.049-28.379,108.051-56.836,162.069-85.27
		c-14.99-6.808-30.011-13.545-44.993-20.369c-10.079-21.993-20.26-43.938-30.37-65.923c50.114,15.302,100.213,30.682,150.312,46.039
		c0.008,24.483,0,48.975,0.008,73.458c-57.023,33.984-114.07,67.93-171.086,101.922C45.352,282.947,22.688,267.044,0,251.164
		C0,167.44,0,83.724,0,0z"/>
	<g>
		<path class="bing-logo" fill="#008373" d="M328.627,50.122c6.823,1.975,13.623,4.036,20.431,6.066c0.039,26.013-0.071,52.019,0.054,78.024
			c4.442-6.753,9.501-13.319,16.372-17.777c11.757-7.971,26.903-9.494,40.589-6.753c11.055,2.155,21.063,8.752,27.59,17.91
			c9.626,13.053,12.585,29.769,12.304,45.672c-0.18,16.582-3.857,33.75-13.874,47.288c-7.292,10.165-18.354,17.582-30.659,20.049
			c-12.328,2.498-25.982,2.053-36.982-4.653c-6.449-3.763-11.234-9.65-15.333-15.763c-0.133,6.261-0.024,12.53-0.062,18.799
			c-6.816,0-13.624,0-20.431,0C328.619,176.028,328.619,113.079,328.627,50.122z M380.662,126.296
			c-14.256,2.147-25.537,13.959-29.464,27.474c-2.764,8.588-2.053,17.707-2.139,26.591c0.031,4.949-0.234,9.961,0.772,14.841
			c1.343,7.292,5.028,14.069,10.235,19.315c13.437,14.131,38.958,13.756,51.918-0.835c7.682-8.432,11.203-19.791,12.444-30.932
			c1.069-10.43,1.038-21.196-2.03-31.314c-2.545-8.346-7.643-16.161-15.138-20.83C399.438,125.625,389.632,124.798,380.662,126.296z
			"/>
	</g>
	<path class="bing-logo" fill="#008373" d="M478.181,56.656c4.95-1.92,11.07-0.827,14.755,3.1c3.708,3.639,4.661,9.556,2.74,14.311
		c-2.123,5.114-7.596,8.627-13.155,8.198c-6.714-0.07-12.702-6.097-12.538-12.851C469.648,63.972,473.122,58.647,478.181,56.656z"/>
	<g>
		<path class="bing-logo" fill="#008373" d="M695.509,112.493c10.696-4.45,22.719-5.449,34.086-3.458c8.604,1.522,16.731,5.894,22.399,12.593
			c1.959,2.045,3.201,4.637,5.129,6.706c0.078-5.636,0.007-11.273,0.039-16.91c6.808-0.008,13.616-0.008,20.432-0.008
			c-0.055,40.675,0.117,81.351-0.094,122.026c-0.375,11.055-2.092,22.235-6.511,32.439c-3.435,7.917-8.674,15.13-15.56,20.377
			c-8.221,6.41-18.332,9.961-28.535,11.57c-19.479,2.771-40.16,1.179-57.953-7.729c1.851-6.105,3.724-12.21,5.582-18.315
			c11.406,5.621,23.843,9.931,36.717,9.618c10.97-0.141,22.493-2.654,31.042-9.923c7.901-6.558,12.187-16.497,13.811-26.451
			c1.546-9.189,0.991-18.534,1.007-27.801c-4.372,6.503-9.337,12.843-16.083,17.059c-11.453,7.479-25.959,9.064-39.215,6.691
			c-11.391-2.038-21.743-8.604-28.754-17.761c-9.376-11.852-13.241-27.201-13.467-42.112c-0.297-16.138,2.584-32.845,11.219-46.726
			C676.624,124.852,685.133,116.811,695.509,112.493z M713.95,126.234c-8.986,1.39-17.238,6.558-22.461,13.983
			c-7.807,10.875-10.422,24.608-10.579,37.763c0.008,12.796,3.419,26.349,12.507,35.78c13.92,14.537,40.183,13.124,53.143-2.014
			c7.292-8.362,10.516-19.651,10.594-30.604c-0.008-6.519,0.031-13.038-0.023-19.557c-0.21-13.499-8.509-26.466-20.634-32.369
			C729.58,125.727,721.523,124.883,713.95,126.234z"/>
	</g>
	<path class="bing-logo" fill="#008373" d="M559.781,118.63c10.056-8.541,23.914-11.352,36.795-9.813c9.931,0.96,19.667,5.652,25.795,13.67
		c8.08,10.344,10.415,23.89,10.633,36.701c0.047,26.599,0.008,53.198,0.023,79.797c-6.815,0.008-13.624,0-20.431,0
		c-0.008-21.118,0-42.237,0-63.347c0-9.767,0.375-19.737-2.413-29.207c-1.811-6.433-5.309-12.702-11.008-16.442
		c-6.979-4.599-15.911-5.16-23.921-3.568c-10.048,2.053-18.315,9.486-22.93,18.448c-3.412,6.566-4.786,14.029-4.77,21.384
		c-0.008,24.241,0,48.49-0.008,72.731c-6.808,0-13.616,0-20.423,0c-0.008-42.518-0.008-85.043-0.008-127.561
		c6.816-0.008,13.624-0.008,20.432,0c0.062,7.167-0.125,14.342,0.101,21.509C551.186,127.772,554.832,122.564,559.781,118.63z"/>
	<path class="bing-logo" fill="#008373" d="M472.724,238.985c-0.007-42.518-0.007-85.043,0-127.569c6.808,0,13.616,0.008,20.424,0
		c-0.031,42.542,0.109,85.09-0.07,127.631C486.292,238.907,479.508,239.024,472.724,238.985z"/>
</g>
</svg>
