<svg version="1.1"
	 id="svg2" xmlns:rdf="http://www.w3.org/1999/02/22-rdf-syntax-ns#" xmlns:cc="http://creativecommons.org/ns#" xmlns:dc="http://purl.org/dc/elements/1.1/" xmlns:svg="http://www.w3.org/2000/svg"
	 xmlns="http://www.w3.org/2000/svg" xmlns:xlink="http://www.w3.org/1999/xlink" x="0px" y="0px" width="100%"
	 height="auto" viewBox="0 -96.938 1532.326 300" enable-background="new 0 -96.938 1532.326 300" xml:space="preserve">
<path id="path18" class="facebook-logo" fill="#4860B0" d="M143.042,5.052H99.516v-28.948c3.18-27.364,48.382-22.166,48.382-22.166l0.014-1.871
	l-0.014-0.21V-93.09h-0.007v-0.007h-0.036c-1.554-0.372-89.911-21.339-107.46,45.907c0,0.015,0,0.036-0.021,0.05
	c-0.036,0.147-0.077,0.294-0.113,0.441C37.5-38.292,37.69,0.211,37.726,5.052H0v51.484h40.066v140.045h58.343V56.536h44.626
	l5.024-51.484H143.042"/>
<path id="path20" class="facebook-logo" fill="#4860B0" d="M277.172,126.747c-1.904,17.838-16.336,28.55-33.395,27.877
	c-17.479-0.68-29.046-10.039-32.821-26.812c-4.527-23.859,0.77-52.214,1.218-54.513c4.568-16.015,16.218-23.937,33.313-23.538
	c16.784,0.379,29.725,10.312,31.615,27.702C278.876,93.731,278.916,110.474,277.172,126.747L277.172,126.747z M282.183,29.685
	c-0.714-0.792-1.423-1.556-2.032-2.194v-0.007c-0.098-0.098-0.174-0.182-0.273-0.281c-0.848-0.882-1.443-1.47-1.443-1.47l0,0
	c-13.737-13.971-18.922-17.446-29.683-20.619c-41.383-12.189-81.672,9.479-94.429,51.113c-7.839,25.586-7.953,51.922-3.357,77.828
	c9.928,56.106,51.66,74.896,96.14,65.634c13.646-2.842,23.791-11.339,33.2-23.174c0,0,0.848-1.036,1.885-3.055v24.689h56.913V5.27
	h-56.913v24.416H282.183"/>
<path id="path22" class="facebook-logo" fill="#4860B0" d="M512.929,184.327c-2.64-9.66-5.646-19.189-8.555-28.392l-2.745-10.238
	c0,0-71.334,34.243-82.457-30.823c-1.03-10.739-0.716-21.825,0.765-32.422c2.773-20.001,14.977-30.714,34.389-32.549
	c6.559-0.624,13.383-0.309,19.875,0.792c8.84,1.493,17.472,4.153,27.146,6.541c3.362-10.289,6.803-20.469,10.007-30.717
	c0.504-1.605,0.924-2.992,1.252-4.232h0.006l1.607-6.158c-0.402-0.819-1.374-1.666-2.678-2.494c0,0,0,0,0,0.007
	c-1.64-1.373-4.435-2.516-8.799-4.113c-1.743-0.637-3.496-1.205-5.247-1.751c-1.568-0.498-2.592-0.792-2.592-0.792h0.009
	c-18.741-5.358-37.981-5.772-57.525-3.713c-41.194,4.351-69.151,28.661-76.91,68.789c-4.071,21.114-3.88,42.491,0.794,63.668
	c6.998,31.716,26.222,52.209,57.475,61.372c20.393,5.976,41.289,6.275,62.082,3.031c8.744-1.364,21.285-5.9,30.287-9.127
	l3.425-1.206l-1.617-5.485L512.929,184.327"/>
<path id="path24" class="facebook-logo" fill="#4860B0" d="M645.861,82.569h-65.896c0.343-13.107,1.981-25.289,13.634-32.709
	c12.371-7.86,26.04-8.154,38.763-1.107C645.225,55.858,646.232,68.69,645.861,82.569L645.861,82.569z M700.715,108.871
	c-0.272-13.355-0.091-26.771-1.98-39.892c-5.206-35.982-27.114-58.75-62.541-64.698c-13.52-2.263-27.818-1.962-41.558-0.651
	c-37.601,3.586-66.143,27.007-71.99,62.251c-3.552,21.382-4.007,44.073-1.134,65.546c4.335,32.305,20.061,52.881,47.274,62.757
	c0.008,0,0.008,0,0.015,0c0.116,0.009,0.236,0.028,0.355,0.041c-0.014,0.015-0.007,0.015-0.014,0.023
	c12.421,3.712,73.208,19.607,126.798-7.314l-2.154-7.889c-0.021,0.014-0.054,0.014-0.074,0.014
	c-2.48-10.524-5.467-20.933-8.275-31.364l-0.301-1.023c0,0-1.114,0.399-3.091,1.03c-0.043,0.006-0.099,0.006-0.14,0.014
	c-2.342,0.608-4.65,1.324-6.947,2.095c-0.43,0.141-0.85,0.272-1.276,0.399c-8.114,2.283-19.706,5.101-31.955,6.678
	c-10.276,1.035-20.657,1.079-31.139,0.182c-17.017-2.816-30.039-11.932-29.415-33.48h9.724c33.358,0,66.713,0,100.08-0.008
	c0.793,0,1.601,0.008,2.39-0.007l-0.007,0.015c0,0,7.169-0.091,7.469-0.162c0,0-0.007-1.89,0-2.121L700.715,108.871"/>
<path id="path14" class="facebook-logo" fill="#4860B0" d="M851.507,127.027c-2.686,18.959-17.772,28.891-35.688,27.498
	c-4.477-0.351-8.524-1.268-12.162-2.691c-14.44-8.285-18.805-22.163-20.071-30.881c-0.017,0.009-0.027,0.009-0.027,0.017
	c-0.988-13.486-2.054-41.684,4.524-55.011c5.587-10.213,15.328-15.777,28.255-16.204c18.36-0.603,32.255,8.504,34.986,27.141
	C853.748,93.318,853.863,110.622,851.507,127.027z M842.392,2.51c-23.027-2.46-42.953,4.519-59.794,24.771V-96.938l-60.984,7.385
	v287.513h60.984v-17.067c8.226,5.87,16.227,12.941,25.583,16.29c35.533,12.735,82.388,2.352,98.783-45.172
	c10.523-30.491,10.248-61.75,2.326-92.582C900.503,25.18,877.709,6.271,842.392,2.51"/>
<path id="path16" class="facebook-logo" fill="#4860B0" d="M1061.104,123.938c-0.204,1.267-0.416,2.522-0.699,3.77
	c-4.052,17.989-17.117,27.729-34.538,26.916c-18.733-0.854-31.587-11.804-33.388-30.526c-1.306-13.674-1.409-27.635-0.275-41.316
	c1.778-21.6,15.285-33.411,35.543-33.012c16.653,0.322,28.517,9.757,32.748,25.766
	C1064.331,91.644,1061.48,120.275,1061.104,123.938z M1058.525,6.062c-21.191-5.668-42.597-5.598-63.739,0.035
	C963.12,14.523,941.9,34.56,935.065,66.427c-3.738,17.392-4.477,35.879-3.49,53.706c2.257,40.788,27.475,69.842,66.623,78.865
	c0.548,0.133,1.123,0.229,1.682,0.355h-0.011c0,0,0.107,0.021,0.284,0.058c1.506,0.3,3.015,0.581,4.526,0.812
	c0.504,0.044,1.021,0.083,1.517,0.133c0.018,0,0.028,0,0.045,0c1.899,0.352,4.175,0.61,6.572,0.798
	c7.663,0.815,17.417,1.394,25.557,0.436c0.058,0,0.084-0.014,0.126-0.023c0.413-0.005,0.832-0.005,1.245-0.032
	c40.422-2.104,71.095-27.588,80.046-66.686c4.916-21.445,4.916-42.995,0.163-64.457C1112.519,36.71,1092.089,15.042,1058.525,6.062"
	/>
<path id="path28" class="facebook-logo" fill="#4860B0" d="M1269.099,123.905c-0.207,1.272-0.416,2.522-0.703,3.772
	c-4.064,17.991-17.116,27.717-34.538,26.919c-18.732-0.876-31.583-11.818-33.393-30.531c-1.3-13.67-1.418-27.63-0.284-41.315
	c1.807-21.604,15.299-33.415,35.574-33.015c16.626,0.322,28.499,9.758,32.731,25.768
	C1272.312,91.601,1269.48,120.249,1269.099,123.905z M1266.523,6.033c-21.192-5.675-42.609-5.605-63.752,0.029
	c-31.651,8.435-52.874,28.464-59.711,60.327c-3.73,17.391-4.478,35.873-3.485,53.711c2.241,40.786,27.475,69.848,66.609,78.862
	c0.559,0.133,1.134,0.232,1.692,0.358h-0.014c0,0,0.1,0.022,0.275,0.055c1.507,0.304,3.029,0.584,4.541,0.807
	c0.504,0.047,1.014,0.097,1.517,0.125c0.014,0.016,0.031,0.016,0.044,0.016c1.914,0.351,4.178,0.617,6.56,0.805
	c7.677,0.814,17.444,1.393,25.57,0.435c0.037-0.014,0.068-0.014,0.123-0.027c0.43-0.005,0.835-0.005,1.233-0.027
	c40.431-2.109,71.109-27.602,80.061-66.689c4.916-21.442,4.916-42.999,0.177-64.458C1320.502,36.676,1300.09,15.007,1266.523,6.033"
	/>
<path id="path26" class="facebook-logo" fill="#4860B0" d="M1532.326,7.28h-64.69l-56.184,87.839v-191.88l-60.986,7.391V198.15h60.986v-87.991
	l56.184,88.114h64.69l-60.972-95.653L1532.326,7.28"/>
</svg>
