<svg version="1.1"
	 id="svg2" xmlns:rdf="http://www.w3.org/1999/02/22-rdf-syntax-ns#" xmlns:cc="http://creativecommons.org/ns#" xmlns:dc="http://purl.org/dc/elements/1.1/"
	 xmlns="http://www.w3.org/2000/svg" xmlns:xlink="http://www.w3.org/1999/xlink" x="0px" y="0px" width="100%" height="auto"
	 viewBox="0 14.28 921.137 300" enable-background="new 0 14.28 921.137 300" xml:space="preserve">
<path id="path2998" class="google-logo" fill="#4885ED" d="M226.467,118.664H118.984v31.896h76.229c-3.765,44.725-40.976,63.799-76.1,63.799
	c-44.938,0-84.151-35.356-84.151-84.915c0-48.275,37.38-85.455,84.249-85.455c36.16,0,57.468,23.051,57.468,23.051l22.333-23.126
	c0,0-28.664-31.911-80.942-31.911C51.5,12.002,0,68.187,0,128.874c0,59.467,48.444,117.452,119.767,117.452
	c62.728,0,108.646-42.973,108.646-106.516c0-13.406-1.947-21.154-1.947-21.154L226.467,118.664z"/>
<path id="path3000" class="google-logo" fill="#DB3236" d="M314.515,95.565c-44.104,0-75.711,34.48-75.711,74.695c0,40.808,30.657,75.929,76.229,75.929
	c41.254,0,75.052-31.532,75.052-75.052C390.086,121.255,350.771,95.565,314.515,95.565L314.515,95.565z M314.954,125.148
	c21.689,0,42.241,17.535,42.241,45.789c0,27.656-20.465,45.69-42.341,45.69c-24.037,0-42.998-19.252-42.998-45.91
	C271.856,144.631,290.582,125.148,314.954,125.148L314.954,125.148z"/>
<path id="path3005" class="google-logo" fill="#F4C20D" d="M479.175,95.565c-44.104,0-75.71,34.48-75.71,74.695c0,40.808,30.657,75.929,76.229,75.929
	c41.255,0,75.052-31.532,75.052-75.052C554.746,121.255,515.432,95.565,479.175,95.565L479.175,95.565z M479.615,125.148
	c21.688,0,42.241,17.535,42.241,45.789c0,27.656-20.465,45.69-42.339,45.69c-24.038,0-42.999-19.252-42.999-45.91
	C436.517,144.631,455.244,125.148,479.615,125.148L479.615,125.148z"/>
<path id="path3007" class="google-logo" fill="#4885ED" d="M640.684,95.645c-40.482,0-72.303,35.457-72.303,75.253c0,45.33,36.891,75.39,71.604,75.39
	c21.465,0,32.879-8.52,41.305-18.299v14.851c0,25.983-15.775,41.543-39.588,41.543c-23.006,0-34.543-17.104-38.553-26.812
	l-28.945,12.1c10.27,21.712,30.939,44.354,67.738,44.354c40.25,0,70.926-25.354,70.926-78.521V100.173h-31.576v12.758
	c-9.711-10.463-22.988-17.285-40.607-17.285V95.645z M643.613,125.167c19.848,0,40.229,16.948,40.229,45.887
	c0,29.418-20.338,45.631-40.666,45.631c-21.584,0-41.664-17.522-41.664-45.35C601.512,142.421,622.367,125.167,643.613,125.167
	L643.613,125.167z"/>
<path id="path3011" class="google-logo" fill="#DB3236" d="M853.264,95.465c-38.188,0-70.25,30.381-70.25,75.212c0,47.438,35.74,75.571,73.918,75.571
	c31.865,0,51.422-17.434,63.092-33.053l-26.035-17.322c-6.754,10.485-18.047,20.731-36.896,20.731
	c-21.172,0-30.908-11.594-36.939-22.824l100.984-41.901l-5.242-12.28c-9.756-24.047-32.514-44.13-62.625-44.13L853.264,95.465z
	 M854.578,124.43c13.762,0,23.664,7.315,27.869,16.086l-67.438,28.188C812.102,146.881,832.777,124.43,854.578,124.43
	L854.578,124.43z"/>
<path id="path3015" class="google-logo" fill="#3CBA54" d="M734.871,241.777h33.172V19.792h-33.172V241.777z"/>
</svg>
