<svg version="1.1" id="Layer_1" xmlns="http://www.w3.org/2000/svg" xmlns:xlink="http://www.w3.org/1999/xlink" x="0px" y="0px"
	 width="100%" height="auto" viewBox="0 0 298.219 297.633" enable-background="new 0 0 298.219 297.633"
	 xml:space="preserve">
<g>
	<defs>
		<path id="SVGID_1_" d="M64.884,0C29.049,0,0,29.189,0,65.195v167.213c0,36.006,29.049,65.195,64.884,65.195h168.452
			c35.835,0,64.884-29.189,64.884-65.195V65.195C298.219,29.189,269.17,0,233.335,0H64.884z"/>
	</defs>
	<clipPath id="SVGID_2_">
		<use xlink:href="#SVGID_1_"  overflow="visible"/>
	</clipPath>

		<radialGradient id="SVGID_3_" cx="-210.6055" cy="508.7822" r="0.465" gradientTransform="matrix(209.9023 -611.7883 -611.7883 -209.9023 355560.1562 -21754.1836)" gradientUnits="userSpaceOnUse">
		<stop  offset="0" style="stop-color:#FFD776"/>
		<stop  offset="0.2463" style="stop-color:#F3A554"/>
		<stop  offset="0.3793" style="stop-color:#F15C3C"/>
		<stop  offset="0.5394" style="stop-color:#D94867"/>
		<stop  offset="0.6995" style="stop-color:#C32F87"/>
		<stop  offset="0.9122" style="stop-color:#7D63A7"/>
		<stop  offset="0.9852" style="stop-color:#5C6CB3"/>
		<stop  offset="1" style="stop-color:#5C6CB3"/>
	</radialGradient>
	<polygon clip-path="url(#SVGID_2_)" fill="url(#SVGID_3_)" points="-91.354,266.261 31.408,-91.542 389.573,31.343
		266.812,389.146 	"/>
</g>
<g>
	<defs>
		<rect id="SVGID_4_" x="-18.223" y="-18.531" width="334.666" height="334.666"/>
	</defs>
	<clipPath id="SVGID_5_">
		<use xlink:href="#SVGID_4_"  overflow="visible"/>
	</clipPath>
	<path clip-path="url(#SVGID_5_)" fill="#FFFFFF" d="M193.995,260.879h-90.659c-34.69,0-63.072-28.382-63.072-63.073v-96.603
		c0-34.69,28.382-63.073,63.072-63.073h90.659c34.689,0,63.072,28.383,63.072,63.073v96.603
		C257.067,232.497,228.684,260.879,193.995,260.879 M193.995,244.212c12.325,0,23.96-4.847,32.76-13.646
		c8.8-8.8,13.646-20.435,13.646-32.761v-96.603c0-12.326-4.846-23.96-13.646-32.76c-8.8-8.8-20.435-13.646-32.76-13.646h-90.659
		c-12.326,0-23.959,4.846-32.76,13.646c-8.8,8.799-13.646,20.434-13.646,32.76v96.603c0,12.326,4.846,23.961,13.646,32.761
		c8.8,8.799,20.434,13.646,32.76,13.646H193.995z"/>
	<path clip-path="url(#SVGID_5_)" fill="#FFFFFF" d="M208.701,148.645c0,32.971-26.729,59.701-59.701,59.701
		c-32.972,0-59.701-26.729-59.701-59.701c0-32.972,26.729-59.701,59.701-59.701C181.972,88.944,208.701,115.673,208.701,148.645
		 M148.713,109.599c-21.591,0-39.093,17.502-39.093,39.093c0,21.59,17.501,39.093,39.093,39.093
		c21.59,0,39.092-17.503,39.092-39.093C187.805,127.101,170.303,109.599,148.713,109.599"/>
	<path clip-path="url(#SVGID_5_)" fill="#FFFFFF" d="M223.795,88.015c0,7.807-6.328,14.137-14.137,14.137
		c-7.807,0-14.136-6.33-14.136-14.137c0-7.807,6.329-14.136,14.136-14.136C217.467,73.879,223.795,80.208,223.795,88.015"/>
</g>
</svg>
