<svg version="1.1" id="Layer_1" xmlns="http://www.w3.org/2000/svg" xmlns:xlink="http://www.w3.org/1999/xlink" x="0px" y="0px"
	 width="100%" height="auto" viewBox="0 0 1050.594 300" enable-background="new 0 0 1050.594 300" xml:space="preserve">
<path d="M27.71,20.109C47.571,0.622,59.878,0.04,59.878,0.04s3.875-0.582,13.272,2.716c9.398,3.294,9.786,8.338,9.786,8.338v142.628
	c1.205,39.917-8.72,55.269-20.638,65.935c-6.774,5.501-12.215,6.206-12.884,6.206c-1.647,0-2.907-0.195-3.199-2.422
	c-0.29-2.232,1.745-8.05,1.745-8.05c6.007-15.224,5.521-41.598,5.521-41.598l0.582-153.684c0,0,0.483-2.811-1.938-1.939
	C28.68,38.339,25.773,66.749,24.998,80.519c-0.388,20.653,8.575,31.317,8.575,31.317s2.324,2.035,2.034,4.946
	c0,3.925-3.633,3.636-3.633,3.636c-8.817-0.823-22.866-10.811-27.903-22.834C-0.107,88.698,0,79.112,0,79.112
	C0.291,67.038,7.848,39.599,27.71,20.109z M1050.594,156.39c0,45.87-27.788,45.135-27.788,45.135
	c-26.438,0.943-33.204-27.001-34.872-55.407c-1.254-21.359,0-45.135,0-45.135s-0.181-1.101-0.909,0
	c-8.841,16.055-14.852,40.411-17.798,59.26c-2.14,13.682-2.36,25.138-2.36,25.138s0.362,2.568-1.818,4.038
	c-14.349,6.604-23.609-2.755-26.88-13.213c-4.358-9.907-6.902-69.533-6.902-72.653c0-3.119-2.543-0.735-2.543-0.735
	c-19.796,33.21-19.978,82.013-19.978,91.922c0,9.905-16.892,6.786-16.892,6.786c-14.347-1.1-13.801-8.071-13.801-8.071
	l-0.653-11.842c-4.985,9.197-14.255,21.141-28.506,20.22c-21.572-1.395-25.758-23.733-26.071-27.505
	c0,0-10.742,27.818-40.289,27.505c-20.069-0.317-28.125-21.063-28.125-21.063s-8.058,21.691-27.806,20.904
	c-19.751-0.784-36.023-23.574-34.761-53.121c1.264-29.548,5.846-44.322,5.846-44.322s1.58-2.987-1.107-3.144
	c-2.682-0.155-19.747,0.314-19.747,0.314s-9.638,38.665-50.404,86.757c0,0,0.328,15.032,0.314,31.747
	c-0.02,31.613-3.947,74.028-46.766,77.486c-37.041-2.504-34.954-31.064-34.954-31.064c-0.883-8.39,4.418-23.849,26.501-44.607
	c22.084-20.759,30.916-28.709,30.916-28.709l-0.883-13.25c-14.133,23.408-35.775,22.084-35.775,22.084s-16.711,3.397-30.763-21.467
	c-4.137,8.518-13.525,23.046-28.884,21.355c-21.58-2.374-25.865-23.912-26.183-27.714c0,0-10.79,28.032-40.462,27.714
	c-20.15-0.316-28.243-21.221-28.243-21.221c-2.336-4.232-4.137-10.656-5.075-14.44c-0.238,0.773-0.518,1.612-0.9,2.597
	c-4.568,11.695-15.886,32.081-33.248,32.346c-31.9,0-33.246-49.483-33.246-49.483c-9.225,21.949-27.29,50.061-60.921,49.869
	c-33.631-0.195-37.667-12.323-37.667-14.055c0-1.736-0.578-3.659,3.266-9.245c3.844-5.582,7.112-7.893,9.801-7.893
	c2.692,0,7.497,4.042,7.497,4.042s7.301,7.123,15.565,7.123c10.569-0.385,12.876-8.854,13.646-17.518
	c0.768-8.666-5.38-17.906-13.839-25.609c-8.455-7.702-14.989-13.478-14.989-13.478c-12.106,20.411-21.332,34.272-28.059,46.21
	c-16.334,26.569-32.545,30.683-38.818,29.845c-8.649-1.156-16.913-10.014-17.298-35.815c-0.382-25.798,1.924-69.892,1.924-72.201
	c0-2.312-2.113-1.155-2.113-1.155c-32.287,34.273-41.897,104.743-41.897,106.09c0,1.35-2.881,2.888-5.766,2.888
	c-2.881,0,0.963-0.19-10.569-0.578c-11.531-0.384-10.763-22.333-10.763-22.333l0.77-104.938c0.191-3.467,3.459-5.006,14.413-2.115
	c10.955,2.887,10.57,6.545,10.57,6.545l-0.384,60.845c28.25-83.374,49.581-70.28,62.457-63.926
	c12.877,6.354,11.146,15.598,11.146,15.598s-1.346,45.825-1.922,61.999c-0.576,16.175,1.73,22.525,5.381,23.104
	c9.034,2.119,41.127-59.881,41.127-59.881c-14.223-15.404-6.46-34.205,4.611-42.361c7.521-5.541,16.72-6.16,16.72-6.16
	s14.413-0.77,14.03,11.36c0.381,13.288-14.414,29.46-14.414,29.46c28.634,20.408,42.086,31.194,44.202,46.979
	c0.947,7.572-0.77,12.323-0.77,12.323c20.372-17.712,21.907-37.545,21.907-37.545l0.385-66.236l-30.171-0.384
	c0,0-2.305-0.193-2.69-5.776c0-10.593,5.573-15.022,5.573-15.022l28.826,0.386c0,0,0.963-29.843,1.154-34.659
	c0.96-6.931,5.38-7.895,18.064-4.62c12.684,3.273,12.684,6.161,12.684,6.161l-1.539,34.85c0,0,31.713,1.541,35.939,1.926
	c4.23,0.385,5.572,1.542,4.613,8.665c-0.963,7.124-5.189,8.859-5.189,8.859l-35.746,0.769l-2.499,76.828
	c0,11.936,0.577,40.049,11.724,39.854c15.565,0.77,24.792-34.078,24.792-34.078l0.173-0.279c-0.177-5.433-0.062-11.947,0.707-19.259
	c2.953-27.999,15.435-60.812,44.108-60.812c0,0,17.457-0.632,26.659,16.786l0.316-6.334c0,0-0.634-7.602,11.426-5.703
	c12.06,1.902,16.184,6.653,15.866,10.454c0,0-2.219,48.776-0.949,77.598c1.615,16.746,4.489,26.644,13.008,25.971
	c7.341-1.071,12.557-11.111,15.711-19.661c-10.662-88.688,37.877-99.443,37.877-99.443s21.483-1.572,31.279,16.346l0.314-5.974
	c0,0-0.945-7.856,10.435-5.657c0,0,4.738,0.629,9.792,2.514c5.056,1.887,6.637,3.144,6.637,7.859s-0.95,87.581-0.95,87.581
	s25.279-33.946,31.601-66.953c0,0-8.848-6.601-8.214-16.032c0.629-9.431,5.371-20.746,19.272-20.746
	c13.907,0,14.537,12.259,12.326,20.746c0,0,11.691-1.572,21.804-4.085c10.113-2.516,23.703-4.088,24.647,11.631
	c0.632,5.659-1.897,10.059-1.897,10.059s-7.898,34.892-6.636,49.035c1.267,14.146,5.058,35.521,16.118,33.005
	c11.059-2.512,14.851-18.231,14.851-18.231s-4.443-18.188-2.212-39.291c2.94-27.787,15.369-60.353,43.922-60.353
	c0,0,17.381-0.628,26.547,16.658l0.316-6.286c0,0-0.635-7.543,11.376-5.658c12.006,1.887,16.114,6.602,15.797,10.372
	c0,0-2.211,48.41-0.944,77.015c1.607,16.621,4.472,26.442,12.953,25.774c8.181-0.239,15.075-14.069,19.344-25.341l-0.053-4.172
	l0.273-81.737c0.679-4.68,4.904-4.953,4.904-4.953l9.805,1.513c13.758,2.064,11.85,7.293,11.85,7.293v46.236
	c10.218-31.374,15.123-43.347,19.754-51.328c3.949-6.803,16.891-2.339,16.891-2.339s14.031,3.717,14.303,16.651
	c-0.407,21.329,2.588,56.074,2.588,56.074c0.053,0.554,0.527,0.724,0.795,0.482c0.21-0.189,0.228-0.759,0.228-0.759
	c2.791-22.359,15.506-59.057,20.593-68.595c5.082-9.541,19.796-2.753,19.796-2.753c17.618,6.055,15.254,16.513,15.254,16.513
	c-5.266,89.717,5.811,95.589,12.353,96.14c6.536,0.552,9.991-7.89,11.443-11.926c1.453-4.037,3.269-12.843,4.357-16.329
	c1.088-3.485,4.541-3.67,4.541-3.67S1050.594,153.088,1050.594,156.39z M455.517,87.712c-6.187,0.238-20.707,4.277-23.323,44.658
	c-2.614,40.38,8.092,50.833,17.137,52.021c9.047,1.186,24.988-13.303,25.94-56.298C476.227,85.097,455.517,87.712,455.517,87.712z
	 M582.124,87.892c-6.28,0.242-22.082,5.744-25.65,44.837c-2.654,40.911,8.212,51.501,17.398,52.705
	c9.181,1.203,25.366-13.478,26.33-57.038C601.172,84.834,582.124,87.892,582.124,87.892z M603.325,213.325
	c-35.775,30.916-38.868,53-38.868,53s-3.532,18.108,13.692,18.994c20.699,2.099,24.175-23.044,24.734-45.053
	C603.147,229.877,603.325,213.325,603.325,213.325z M799.472,89.146c-6.187,0.237-20.711,4.276-23.326,44.657
	c-2.615,40.38,8.093,50.832,17.14,52.021c9.044,1.187,24.989-13.302,25.938-56.298C820.179,86.531,799.472,89.146,799.472,89.146z"
	/>
</svg>
