<svg version="1.1" id="Layer_1" xmlns="http://www.w3.org/2000/svg" xmlns:xlink="http://www.w3.org/1999/xlink" x="0px" y="0px"
	 width="100%" height="auto" viewBox="0 0 1179.263 298.814" enable-background="new 0 0 1179.263 298.814"
	 xml:space="preserve">
<g>
	<polygon points="0,44.193 46.098,44.193 46.098,212.088 131.441,212.088 131.441,254.621 0,254.621 	"/>
	<g>
		<path d="M151.802,111.961h44.307v142.603h-44.307V111.961z M173.955,41.076c14.188,0,25.703,11.516,25.703,25.689
			c0,14.199-11.516,25.683-25.703,25.683c-14.171,0-25.687-11.483-25.687-25.683C148.269,52.591,159.784,41.076,173.955,41.076"/>
	</g>
	<polygon points="381.312,44.179 425.601,44.179 425.601,169.946 475.774,111.897 530.073,111.897 471.966,177.924 528.86,254.621
		473.185,254.621 426.176,184.129 425.601,184.129 425.601,254.621 381.312,254.621 	"/>
	<path d="M220.612,111.982h42.528v19.493h0.594c5.902-11.225,20.377-23.034,41.937-23.034c44.901,0,53.167,29.533,53.167,67.92
		v78.203h-44.305v-69.334c0-16.546-0.304-37.803-23.049-37.803c-23.033,0-26.566,18.021-26.566,36.619v70.518h-44.306V111.982z"/>
	<path d="M623.332,166.685c0.29-14.769-11.229-27.176-27.193-27.176c-19.483,0-30.124,13.291-31.292,27.176H623.332z
		 M660.832,229.877c-14.18,18.019-37.5,28.367-60.551,28.367c-44.295,0-79.74-29.551-79.74-75.33
		c0-45.772,35.445-75.305,79.74-75.305c41.382,0,67.349,29.532,67.349,75.305v13.883H564.847
		c3.519,16.838,16.239,27.765,33.373,27.765c14.477,0,24.216-7.387,31.603-17.429L660.832,229.877z"/>
	<path d="M759.901,146.446c-22.135,0-35.422,14.778-35.422,36.321c0,21.58,13.287,36.329,35.422,36.329
		c22.168,0,35.463-14.749,35.463-36.329C795.364,161.224,782.069,146.446,759.901,146.446 M836.133,254.544h-40.769v-18.912h-0.576
		c-6.815,10.336-23.93,22.453-44.021,22.453c-42.544,0-70.598-30.705-70.598-74.129c0-39.876,24.808-76.5,65.564-76.5
		c18.33,0,35.456,5.017,45.5,18.9h0.576V44.179h44.323V254.544z"/>
</g>
<path class="linkedin-logo" fill="#0177B5" d="M1157.144,0H902.496c-12.169,0-22.057,9.645-22.057,21.532v255.724c0,11.899,9.888,21.558,22.057,21.558
	h254.647c12.189,0,22.119-9.658,22.119-21.558V21.532C1179.263,9.645,1169.333,0,1157.144,0z"/>
<path fill="#FFFFFF" d="M924.744,112.025h44.323v142.603h-44.323V112.025z M946.916,41.139c14.169,0,25.684,11.516,25.684,25.689
	c0,14.188-11.515,25.703-25.684,25.703c-14.205,0-25.703-11.515-25.703-25.703C921.213,52.655,932.711,41.139,946.916,41.139"/>
<path fill="#FFFFFF" d="M996.867,112.025h42.509v19.485h0.594c5.917-11.211,20.374-23.031,41.936-23.031
	c44.881,0,53.167,29.538,53.167,67.931v78.218h-44.291V185.28c0-16.536-0.305-37.809-23.031-37.809
	c-23.062,0-26.602,18.014-26.602,36.613v70.544h-44.281V112.025z"/>
</svg>
