<svg version="1.1" id="Layer_1" xmlns="http://www.w3.org/2000/svg" xmlns:xlink="http://www.w3.org/1999/xlink" x="0px" y="0px"
	 width="100%" height="auto" viewBox="0 0 999.525 300.641" enable-background="new 0 0 999.525 300.641"
	 xml:space="preserve">
<path class="spotify-logo" fill="#1ED760" d="M149.892,0.856C67.11,0.856,0,67.964,0,150.745c0,82.791,67.11,149.896,149.892,149.896
	c82.785,0,149.894-67.105,149.894-149.896C299.785,67.964,232.676,0.856,149.892,0.856 M218.634,217.051
	c-2.694,4.42-8.445,5.803-12.846,3.109c-35.198-21.512-79.501-26.371-131.678-14.453c-5.027,1.154-10.04-1.996-11.186-7.023
	c-1.152-5.027,1.988-10.039,7.026-11.188c57.098-13.051,106.075-7.436,145.583,16.707
	C219.939,206.895,221.326,212.649,218.634,217.051 M236.975,176.237c-3.39,5.5-10.582,7.227-16.074,3.85
	c-40.28-24.76-101.707-31.935-149.363-17.469c-6.178,1.867-12.706-1.615-14.584-7.787c-1.861-6.178,1.624-12.692,7.793-14.572
	c54.44-16.521,122.118-8.52,168.384,19.914C238.624,163.555,240.352,170.749,236.975,176.237 M238.558,133.738
	c-48.317-28.693-128.014-31.333-174.138-17.333c-7.408,2.249-15.24-1.933-17.483-9.339c-2.245-7.413,1.931-15.24,9.343-17.491
	c52.949-16.072,140.965-12.968,196.588,20.05c6.664,3.956,8.847,12.559,4.898,19.211
	C253.814,135.497,245.204,137.693,238.558,133.738"/>
<path class="spotify-logo" fill="#1ED760" d="M407.805,139.232c-25.881-6.172-30.488-10.504-30.488-19.605c0-8.599,8.096-14.384,20.135-14.384
	c11.672,0,23.24,4.395,35.375,13.44c0.365,0.274,0.826,0.383,1.279,0.312c0.453-0.068,0.854-0.315,1.117-0.691l12.637-17.813
	c0.521-0.734,0.379-1.745-0.322-2.305C433.098,86.6,416.84,80.967,397.834,80.967c-27.943,0-47.463,16.768-47.463,40.763
	c0,25.73,16.838,34.839,45.934,41.874c24.766,5.703,28.947,10.482,28.947,19.025c0,9.467-8.453,15.352-22.053,15.352
	c-15.107,0-27.428-5.088-41.213-17.025c-0.342-0.293-0.812-0.428-1.244-0.404c-0.457,0.039-0.873,0.25-1.164,0.598l-14.17,16.861
	c-0.594,0.701-0.518,1.746,0.17,2.352c16.039,14.318,35.762,21.881,57.045,21.881c30.115,0,49.57-16.453,49.57-41.92
	C452.193,158.803,439.336,146.899,407.805,139.232"/>
<path class="spotify-logo" fill="#1ED760" d="M520.32,113.708c-13.051,0-23.758,5.141-32.586,15.674v-11.856c0-0.936-0.758-1.699-1.695-1.699h-23.172
	c-0.936,0-1.693,0.763-1.693,1.699v131.74c0,0.936,0.758,1.697,1.693,1.697h23.172c0.938,0,1.695-0.762,1.695-1.697V207.68
	c8.83,9.912,19.539,14.752,32.586,14.752c24.25,0,48.801-18.67,48.801-54.355C569.121,132.382,544.57,113.708,520.32,113.708
	 M542.18,168.077c0,18.172-11.195,30.854-27.223,30.854c-15.85,0-27.801-13.258-27.801-30.854s11.951-30.854,27.801-30.854
	C530.727,137.222,542.18,150.194,542.18,168.077"/>
<path class="spotify-logo" fill="#1ED760" d="M632.051,113.708c-31.232,0-55.699,24.049-55.699,54.755c0,30.373,24.301,54.172,55.314,54.172
	c31.344,0,55.887-23.973,55.887-54.559C687.553,137.588,663.178,113.708,632.051,113.708 M632.051,199.12
	c-16.611,0-29.139-13.348-29.139-31.043c0-17.773,12.094-30.668,28.754-30.668c16.719,0,29.328,13.346,29.328,31.055
	C660.994,186.231,648.822,199.12,632.051,199.12"/>
<path class="spotify-logo" fill="#1ED760" d="M754.248,115.827h-25.5V89.756c0-0.936-0.756-1.699-1.691-1.699h-23.172c-0.938,0-1.697,0.763-1.697,1.699
	v26.071h-11.143c-0.934,0-1.689,0.763-1.689,1.699v19.914c0,0.936,0.756,1.698,1.689,1.698h11.143v51.534
	c0,20.824,10.365,31.385,30.805,31.385c8.314,0,15.211-1.717,21.709-5.4c0.527-0.295,0.857-0.865,0.857-1.471v-18.965
	c0-0.586-0.305-1.139-0.805-1.445c-0.506-0.316-1.133-0.332-1.65-0.076c-4.465,2.246-8.781,3.281-13.602,3.281
	c-7.438,0-10.754-3.375-10.754-10.941v-47.901h25.5c0.936,0,1.691-0.762,1.691-1.698v-19.914
	C755.939,116.59,755.184,115.827,754.248,115.827"/>
<path class="spotify-logo" fill="#1ED760" d="M843.096,115.929v-3.202c0-9.421,3.611-13.621,11.711-13.621c4.83,0,8.711,0.959,13.057,2.409
	c0.535,0.168,1.094,0.083,1.527-0.237c0.449-0.321,0.703-0.834,0.703-1.376V80.372c0-0.745-0.482-1.408-1.199-1.625
	c-4.59-1.366-10.467-2.769-19.262-2.769c-21.406,0-32.715,12.055-32.715,34.844v4.903h-11.135c-0.934,0-1.699,0.763-1.699,1.698
	v20.018c0,0.934,0.766,1.698,1.699,1.698h11.135v79.488c0,0.936,0.756,1.697,1.689,1.697h23.17c0.936,0,1.699-0.762,1.699-1.697
	V139.14h21.637l33.143,79.466c-3.76,8.35-7.463,10.01-12.512,10.01c-4.082,0-8.383-1.217-12.779-3.621
	c-0.412-0.227-0.902-0.268-1.352-0.127c-0.439,0.154-0.814,0.484-0.998,0.914l-7.855,17.23c-0.375,0.814-0.057,1.77,0.727,2.195
	c8.201,4.438,15.602,6.334,24.752,6.334c17.107,0,26.568-7.971,34.906-29.414l40.203-103.886c0.201-0.521,0.143-1.112-0.18-1.576
	c-0.316-0.46-0.83-0.737-1.395-0.737h-24.121c-0.725,0-1.371,0.459-1.607,1.138l-24.713,70.588l-27.068-70.635
	c-0.248-0.657-0.879-1.091-1.58-1.091H843.096z"/>
<path class="spotify-logo" fill="#1ED760" d="M791.586,115.827h-23.174c-0.934,0-1.695,0.763-1.695,1.699v101.101c0,0.936,0.762,1.697,1.695,1.697h23.174
	c0.934,0,1.701-0.762,1.701-1.697V117.526C793.287,116.59,792.52,115.827,791.586,115.827"/>
<path class="spotify-logo" fill="#1ED760" d="M780.121,69.793c-9.182,0-16.631,7.432-16.631,16.612c0,9.186,7.449,16.627,16.631,16.627
	c9.176,0,16.619-7.441,16.619-16.627C796.74,77.225,789.297,69.793,780.121,69.793"/>
<path class="spotify-logo" fill="#1ED760" d="M983.135,148.333c-9.174,0-16.309-7.366-16.309-16.31c0-8.943,7.229-16.393,16.393-16.393
	c9.17,0,16.307,7.363,16.307,16.3C999.525,140.876,992.301,148.333,983.135,148.333 M983.219,117.251
	c-8.354,0-14.676,6.64-14.676,14.772c0,8.126,6.273,14.679,14.592,14.679c8.348,0,14.678-6.637,14.678-14.772
	C997.812,123.802,991.531,117.251,983.219,117.251 M986.832,133.607l4.615,6.458h-3.891l-4.154-5.923h-3.566v5.923h-3.258v-17.117
	h7.633c3.979,0,6.598,2.035,6.598,5.46C990.809,131.214,989.186,132.929,986.832,133.607 M984.082,125.884h-4.246v5.415h4.246
	c2.117,0,3.383-1.037,3.383-2.708C987.465,126.827,986.199,125.884,984.082,125.884"/>
</svg>
