<svg version="1.1" id="Logo_FIXED" xmlns="http://www.w3.org/2000/svg" xmlns:xlink="http://www.w3.org/1999/xlink" x="0px" y="0px"
	 width="100%" height="auto" viewBox="0 100 369.727 300" enable-background="new 0 100 369.727 300" xml:space="preserve">
<path class="twitter-logo" fill="#1EA1F2" d="M116.271,400.423c139.521,0,215.833-115.592,215.833-215.832c0-3.283,0-6.552-0.222-9.806
	c14.846-10.738,27.66-24.034,37.845-39.265c-13.844,6.134-28.53,10.158-43.568,11.935c15.836-9.48,27.687-24.391,33.349-41.957
	c-14.889,8.836-31.181,15.063-48.167,18.413c-28.728-30.547-76.78-32.022-107.327-3.294c-19.7,18.527-28.06,46.135-21.945,72.478
	c-60.992-3.058-117.817-31.866-156.335-79.254C5.6,148.5,15.883,192.841,49.218,215.101c-12.072-0.357-23.88-3.615-34.429-9.495
	c0,0.311,0,0.636,0,0.961c0.01,36.108,25.463,67.21,60.857,74.359c-11.167,3.046-22.885,3.491-34.251,1.303
	c9.938,30.899,38.416,52.068,70.87,52.678c-26.861,21.11-60.043,32.57-94.207,32.536c-6.036-0.012-12.065-0.377-18.058-1.095
	c34.689,22.263,75.053,34.07,116.271,34.016"/>
</svg>
