<?xml version="1.0" encoding="utf-8"?>
<!-- Generator: Adobe Illustrator 16.0.0, SVG Export Plug-In . SVG Version: 6.00 Build 0)  -->
<!DOCTYPE svg PUBLIC "-//W3C//DTD SVG 1.1//EN" "http://www.w3.org/Graphics/SVG/1.1/DTD/svg11.dtd">
<svg version="1.1" id="Layer_1" xmlns="http://www.w3.org/2000/svg" xmlns:xlink="http://www.w3.org/1999/xlink" x="0px" y="0px"
	 width="887.956px" height="521.973px" viewBox="0 0 887.956 521.973" enable-background="new 0 0 887.956 521.973"
	 xml:space="preserve">
<g id="Awareness">
	<path d="M138.383,383.081h0.393l10.174,22.442h-4.809l-1.047-2.52h-9.029l-1.047,2.52h-4.417L138.383,383.081z M141.458,399.176
		l-1.603-3.86c-0.654-1.57-1.341-3.991-1.341-3.991s-0.654,2.421-1.309,3.991l-1.603,3.86H141.458z"/>
	<path d="M147.639,391.586h4.875l1.603,3.958c0.491,1.178,1.014,3.108,1.014,3.108s0.523-1.963,1.145-3.108l2.29-4.318h0.327
		l2.421,4.318c0.622,1.113,1.21,3.108,1.21,3.108s0.523-1.963,1.014-3.108l1.636-3.958h4.417l-6.51,14.296h-0.393l-3.01-5.594
		c-0.556-1.014-0.981-2.781-0.981-2.781s-0.491,1.8-1.047,2.781l-3.206,5.594h-0.36L147.639,391.586z"/>
	<path d="M170.503,398.522c0-4.22,2.715-7.229,6.216-7.229c2.094,0,3.468,0.883,4.253,2.388l-0.065-2.094h4.384v13.937h-4.384
		l0.065-2.127c-0.72,1.407-2.192,2.422-4.318,2.422C173.316,405.818,170.503,402.808,170.503,398.522z M180.972,398.522
		c0-2.062-1.08-3.337-2.977-3.337c-1.865,0-2.912,1.275-2.912,3.337c0,2.126,1.047,3.435,2.912,3.435
		C179.892,401.957,180.972,400.648,180.972,398.522z"/>
	<path d="M188.755,391.586h4.417l-0.065,2.519c1.014-2.289,2.65-2.812,4.089-2.812c0.916,0,1.603,0.262,2.159,0.556l-1.407,4.024
		c-0.556-0.262-1.08-0.426-1.701-0.426c-1.996,0-3.075,0.916-3.075,3.893v6.184h-4.417V391.586z"/>
	<path d="M208.709,402.154c1.603,0,2.813-0.622,3.5-1.113l2.519,2.716c-1.341,1.178-3.042,2.062-5.954,2.062
		c-4.973,0-8.179-3.01-8.179-7.296c0-4.22,3.37-7.229,7.688-7.229c5.005,0,7.721,3.729,7.394,8.604H205.11
		C205.536,401.335,206.713,402.154,208.709,402.154z M211.228,397.344c-0.196-1.538-1.178-2.454-2.912-2.454
		s-2.912,0.785-3.271,2.454H211.228z"/>
	<path d="M218.684,391.586h4.417l-0.098,2.29c0.851-1.668,2.486-2.584,4.417-2.584c3.042,0,5.234,2.225,5.234,6.183v8.048h-4.417
		v-7.754c0-1.57-0.752-2.453-2.323-2.453c-1.767,0-2.813,0.981-2.813,2.748v7.459h-4.417V391.586z"/>
	<path d="M243.643,402.154c1.603,0,2.813-0.622,3.5-1.113l2.52,2.716c-1.342,1.178-3.042,2.062-5.954,2.062
		c-4.973,0-8.179-3.01-8.179-7.296c0-4.22,3.37-7.229,7.688-7.229c5.005,0,7.72,3.729,7.394,8.604h-10.567
		C240.47,401.335,241.647,402.154,243.643,402.154z M246.162,397.344c-0.196-1.538-1.178-2.454-2.912-2.454
		s-2.912,0.785-3.271,2.454H246.162z"/>
	<path d="M252.441,403.167l2.585-2.29c0.948,0.916,2.158,1.472,3.467,1.472c1.439,0,1.898-0.262,1.898-0.85
		c0-0.753-0.884-0.753-3.141-1.342c-1.898-0.49-4.024-1.537-4.024-4.449c0-3.141,2.421-4.416,5.397-4.416
		c2.291,0,3.926,0.752,5.071,1.93l-2.355,2.52c-0.654-0.557-1.636-1.047-2.683-1.047c-1.014,0-1.505,0.262-1.505,0.817
		c0,0.785,0.884,0.884,2.78,1.309c2.029,0.458,4.58,1.407,4.58,4.351c0,2.553-1.341,4.646-5.725,4.646
		C255.549,405.818,253.651,404.607,252.441,403.167z"/>
	<path d="M266.211,403.167l2.584-2.29c0.949,0.916,2.16,1.472,3.469,1.472c1.439,0,1.896-0.262,1.896-0.85
		c0-0.753-0.883-0.753-3.141-1.342c-1.896-0.49-4.023-1.537-4.023-4.449c0-3.141,2.421-4.416,5.398-4.416
		c2.289,0,3.926,0.752,5.07,1.93l-2.355,2.52c-0.654-0.557-1.636-1.047-2.683-1.047c-1.015,0-1.505,0.262-1.505,0.817
		c0,0.785,0.883,0.884,2.781,1.309c2.027,0.458,4.58,1.407,4.58,4.351c0,2.553-1.342,4.646-5.726,4.646
		C269.319,405.818,267.422,404.607,266.211,403.167z"/>
</g>
<g id="Consideration">
	<path d="M25.063,258.777c0-6.576,5.071-11.385,11.45-11.385c4.024,0,6.903,1.439,8.898,4.547l-3.5,2.486
		c-1.047-1.701-2.846-2.912-5.398-2.912c-4.024,0-6.739,3.108-6.739,7.263s2.715,7.328,6.739,7.328c2.879,0,4.482-1.374,5.725-3.271
		l3.566,2.454c-1.93,3.01-5.005,4.907-9.291,4.907C30.134,270.194,25.063,265.353,25.063,258.777z"/>
	<path d="M47.796,262.964c0-4.253,3.37-7.295,7.688-7.295s7.655,3.042,7.655,7.295c0,4.22-3.337,7.23-7.655,7.23
		S47.796,267.185,47.796,262.964z M58.625,262.964c0-2.094-1.178-3.5-3.141-3.5s-3.173,1.407-3.173,3.5c0,2.061,1.21,3.5,3.173,3.5
		S58.625,265.025,58.625,262.964z"/>
	<path d="M66.114,255.963h4.417l-0.098,2.29c0.851-1.668,2.486-2.584,4.417-2.584c3.042,0,5.234,2.225,5.234,6.183v8.048h-4.417
		v-7.753c0-1.57-0.752-2.454-2.323-2.454c-1.767,0-2.813,0.981-2.813,2.748v7.459h-4.417V255.963z"/>
	<path d="M82.436,267.544l2.584-2.29c0.949,0.916,2.159,1.472,3.468,1.472c1.439,0,1.897-0.262,1.897-0.851
		c0-0.752-0.883-0.752-3.141-1.341c-1.897-0.491-4.024-1.538-4.024-4.449c0-3.141,2.421-4.417,5.398-4.417
		c2.29,0,3.926,0.752,5.071,1.93l-2.355,2.519c-0.654-0.556-1.636-1.047-2.683-1.047c-1.014,0-1.505,0.262-1.505,0.818
		c0,0.785,0.883,0.883,2.781,1.309c2.028,0.458,4.58,1.407,4.58,4.351c0,2.552-1.341,4.646-5.725,4.646
		C85.544,270.194,83.646,268.984,82.436,267.544z"/>
	<path d="M96.795,250.86c0-1.603,1.309-2.748,2.813-2.748s2.781,1.145,2.781,2.748c0,1.636-1.276,2.781-2.781,2.781
		S96.795,252.496,96.795,250.86z M97.384,255.963h4.417V269.9h-4.417V255.963z"/>
	<path d="M104.973,262.899c0-4.286,2.879-7.23,6.249-7.23c2.225,0,3.468,0.883,4.351,2.257V246.28h4.417v23.62h-4.417l0.098-2.028
		c-0.785,1.472-2.257,2.323-4.384,2.323C107.884,270.194,104.973,267.185,104.973,262.899z M115.703,262.899
		c0-2.061-1.243-3.337-3.141-3.337c-1.865,0-3.042,1.276-3.042,3.337c0,2.192,1.178,3.435,3.042,3.435
		C114.46,266.334,115.703,265.091,115.703,262.899z"/>
	<path d="M131.076,266.53c1.603,0,2.813-0.622,3.5-1.112l2.519,2.715c-1.341,1.178-3.042,2.061-5.954,2.061
		c-4.973,0-8.179-3.01-8.179-7.295c0-4.22,3.37-7.23,7.688-7.23c5.005,0,7.721,3.729,7.394,8.604h-10.567
		C127.903,265.712,129.081,266.53,131.076,266.53z M133.595,261.721c-0.196-1.538-1.178-2.454-2.912-2.454s-2.912,0.785-3.271,2.454
		H133.595z"/>
	<path d="M141.051,255.963h4.416l-0.064,2.519c1.014-2.29,2.649-2.813,4.089-2.813c0.916,0,1.603,0.262,2.159,0.556l-1.406,4.024
		c-0.557-0.262-1.08-0.425-1.701-0.425c-1.996,0-3.076,0.916-3.076,3.893v6.183h-4.416V255.963z"/>
	<path d="M152.924,262.899c0-4.22,2.716-7.23,6.217-7.23c2.094,0,3.467,0.883,4.252,2.388l-0.064-2.094h4.383V269.9h-4.383
		l0.064-2.126c-0.719,1.407-2.191,2.421-4.318,2.421C155.739,270.194,152.924,267.185,152.924,262.899z M163.393,262.899
		c0-2.061-1.079-3.337-2.977-3.337c-1.865,0-2.912,1.276-2.912,3.337c0,2.126,1.047,3.435,2.912,3.435
		C162.314,266.334,163.393,265.025,163.393,262.899z"/>
	<path d="M172.518,264.666v-5.038h-2.061v-3.664h2.061v-7.263h4.384v7.263h3.565v3.664h-3.565v5.169
		c0,1.407,0.458,1.701,1.146,1.701c0.719,0,1.242-0.393,1.537-0.589l1.668,3.075c-0.687,0.556-1.864,1.276-3.893,1.276
		C174.546,270.26,172.518,268.853,172.518,264.666z"/>
	<path d="M183.083,250.86c0-1.603,1.309-2.748,2.813-2.748s2.78,1.145,2.78,2.748c0,1.636-1.275,2.781-2.78,2.781
		S183.083,252.496,183.083,250.86z M183.671,255.963h4.417V269.9h-4.417V255.963z"/>
	<path d="M191.227,262.964c0-4.253,3.369-7.295,7.688-7.295s7.656,3.042,7.656,7.295c0,4.22-3.338,7.23-7.656,7.23
		S191.227,267.185,191.227,262.964z M202.055,262.964c0-2.094-1.178-3.5-3.141-3.5s-3.173,1.407-3.173,3.5
		c0,2.061,1.21,3.5,3.173,3.5S202.055,265.025,202.055,262.964z"/>
	<path d="M209.545,255.963h4.416l-0.098,2.29c0.85-1.668,2.486-2.584,4.416-2.584c3.043,0,5.234,2.225,5.234,6.183v8.048h-4.416
		v-7.753c0-1.57-0.753-2.454-2.323-2.454c-1.767,0-2.813,0.981-2.813,2.748v7.459h-4.416V255.963z"/>
</g>
<g id="Evaluation">
	<path d="M134.187,108.746h14.722v4.024h-10.142v7.066h8.931v3.926h-8.931v3.206h10.6v4.023h-15.18V108.746z"/>
	<path d="M149.953,117.055h4.875l1.963,4.155c0.654,1.406,1.145,3.696,1.145,3.696s0.458-2.29,1.08-3.696l1.897-4.155h4.482
		l-7.459,14.231h-0.425L149.953,117.055z"/>
	<path d="M166.145,123.991c0-4.22,2.715-7.229,6.216-7.229c2.094,0,3.468,0.883,4.253,2.388l-0.065-2.094h4.384v13.937h-4.384
		l0.065-2.126c-0.72,1.406-2.192,2.421-4.318,2.421C168.958,131.287,166.145,128.277,166.145,123.991z M176.613,123.991
		c0-2.061-1.08-3.337-2.977-3.337c-1.865,0-2.912,1.276-2.912,3.337c0,2.127,1.047,3.436,2.912,3.436
		C175.534,127.426,176.613,126.118,176.613,123.991z"/>
	<path d="M184.495,107.372h4.384v23.62h-4.384V107.372z"/>
	<path d="M192.344,124.71v-7.655h4.417v7.558c0,1.897,0.654,2.911,2.388,2.911c1.767,0,2.421-1.014,2.421-2.911v-7.558h4.417v7.655
		c0,4.09-2.552,6.642-7.001,6.642C194.569,131.352,192.344,128.8,192.344,124.71z"/>
	<path d="M208.896,123.991c0-4.22,2.715-7.229,6.216-7.229c2.094,0,3.468,0.883,4.253,2.388l-0.065-2.094h4.384v13.937h-4.384
		l0.065-2.126c-0.72,1.406-2.192,2.421-4.318,2.421C211.709,131.287,208.896,128.277,208.896,123.991z M219.364,123.991
		c0-2.061-1.08-3.337-2.977-3.337c-1.865,0-2.912,1.276-2.912,3.337c0,2.127,1.047,3.436,2.912,3.436
		C218.285,127.426,219.364,126.118,219.364,123.991z"/>
	<path d="M228.489,125.757v-5.038h-2.061v-3.664h2.061v-7.263h4.384v7.263h3.566v3.664h-3.566v5.169
		c0,1.407,0.458,1.701,1.145,1.701c0.72,0,1.243-0.393,1.538-0.589l1.668,3.075c-0.687,0.557-1.865,1.276-3.893,1.276
		C230.517,131.352,228.489,129.945,228.489,125.757z"/>
	<path d="M239.054,111.952c0-1.603,1.309-2.748,2.813-2.748s2.781,1.146,2.781,2.748c0,1.636-1.276,2.781-2.781,2.781
		S239.054,113.587,239.054,111.952z M239.643,117.055h4.417v13.937h-4.417V117.055z"/>
	<path d="M247.198,124.056c0-4.253,3.37-7.295,7.688-7.295c4.318,0,7.656,3.042,7.656,7.295c0,4.221-3.338,7.23-7.656,7.23
		C250.568,131.287,247.198,128.277,247.198,124.056z M258.026,124.056c0-2.094-1.178-3.5-3.141-3.5s-3.173,1.406-3.173,3.5
		c0,2.062,1.21,3.501,3.173,3.501S258.026,126.118,258.026,124.056z"/>
	<path d="M265.517,117.055h4.416l-0.098,2.29c0.85-1.668,2.486-2.584,4.416-2.584c3.043,0,5.234,2.225,5.234,6.183v8.048h-4.416
		v-7.753c0-1.57-0.753-2.454-2.323-2.454c-1.767,0-2.813,0.981-2.813,2.748v7.459h-4.416V117.055z"/>
</g>
<g id="Momentoftruth">
	<path d="M323.423,27.237h0.458l7.786,10.501c0.72,0.981,1.603,2.421,1.603,2.421s0.883-1.472,1.57-2.421l7.655-10.501h0.458
		l1.799,22.475h-4.547l-0.589-7.884c-0.098-1.472-0.196-3.958-0.196-3.958s-1.145,2.159-2.061,3.37l-4.024,5.398h-0.393
		l-4.057-5.365c-0.916-1.21-2.192-3.37-2.192-3.37s-0.065,2.486-0.164,3.958l-0.589,7.852h-4.318L323.423,27.237z"/>
	<path d="M347.235,42.776c0-4.253,3.37-7.295,7.688-7.295s7.655,3.042,7.655,7.295c0,4.22-3.337,7.23-7.655,7.23
		S347.235,46.997,347.235,42.776z M358.063,42.776c0-2.094-1.178-3.5-3.141-3.5s-3.173,1.407-3.173,3.5c0,2.061,1.21,3.5,3.173,3.5
		S358.063,44.837,358.063,42.776z"/>
	<path d="M365.552,35.775h4.417l-0.098,2.159c0.981-1.701,2.29-2.454,3.958-2.454c1.799,0,3.075,0.752,3.926,2.388
		c1.145-1.439,2.683-2.388,4.744-2.388c3.5,0,5.529,2.323,5.529,6.15v8.081h-4.384v-7.688c0-1.636-0.523-2.519-2.192-2.519
		c-1.701,0-2.454,0.851-2.454,2.748v7.459h-4.384v-7.688c0-1.636-0.491-2.519-2.159-2.519c-1.701,0-2.486,0.851-2.486,2.748v7.459
		h-4.417V35.775z"/>
	<path d="M399.016,46.342c1.603,0,2.813-0.622,3.5-1.112l2.519,2.715c-1.341,1.178-3.042,2.061-5.954,2.061
		c-4.973,0-8.179-3.01-8.179-7.295c0-4.22,3.37-7.23,7.688-7.23c5.005,0,7.721,3.729,7.394,8.604h-10.567
		C395.842,45.524,397.02,46.342,399.016,46.342z M401.535,41.533c-0.196-1.538-1.178-2.454-2.912-2.454s-2.912,0.785-3.271,2.454
		H401.535z"/>
	<path d="M408.991,35.775h4.417l-0.098,2.29c0.851-1.668,2.486-2.584,4.417-2.584c3.042,0,5.234,2.225,5.234,6.183v8.048h-4.417
		v-7.753c0-1.57-0.752-2.454-2.323-2.454c-1.767,0-2.813,0.981-2.813,2.748v7.459h-4.417V35.775z"/>
	<path d="M427.505,44.478v-5.038h-2.061v-3.664h2.061v-7.263h4.384v7.263h3.565v3.664h-3.565v5.169c0,1.407,0.457,1.701,1.145,1.701
		c0.72,0,1.243-0.393,1.537-0.589l1.669,3.075c-0.687,0.556-1.864,1.276-3.894,1.276C429.533,50.072,427.505,48.665,427.505,44.478z
		"/>
	<path d="M445.396,42.776c0-4.253,3.37-7.295,7.688-7.295s7.654,3.042,7.654,7.295c0,4.22-3.336,7.23-7.654,7.23
		S445.396,46.997,445.396,42.776z M456.225,42.776c0-2.094-1.178-3.5-3.141-3.5s-3.174,1.407-3.174,3.5c0,2.061,1.211,3.5,3.174,3.5
		S456.225,44.837,456.225,42.776z"/>
	<path d="M464.99,39.439h-2.323v-3.664h2.323v-4.678c0-3.599,1.701-5.431,5.136-5.431c1.963,0,3.271,0.589,4.286,1.767l-2.388,2.944
		c-0.328-0.393-0.721-0.752-1.407-0.752c-0.72,0-1.21,0.393-1.21,1.407v4.744h3.762v3.664h-3.762v10.272h-4.417V39.439z"/>
	<path d="M488.77,31.49h-6.347v-4.024h17.273v4.024h-6.347v18.222h-4.58V31.49z"/>
	<path d="M498.713,35.775h4.416l-0.065,2.519c1.015-2.29,2.649-2.813,4.089-2.813c0.916,0,1.604,0.262,2.16,0.556l-1.407,4.024
		c-0.556-0.262-1.079-0.425-1.701-0.425c-1.995,0-3.075,0.916-3.075,3.893v6.183h-4.416V35.775z"/>
	<path d="M511.437,43.431v-7.655h4.417v7.557c0,1.897,0.654,2.912,2.388,2.912c1.767,0,2.421-1.014,2.421-2.912v-7.557h4.416v7.655
		c0,4.089-2.551,6.641-7,6.641C513.662,50.072,511.437,47.52,511.437,43.431z"/>
	<path d="M529.788,44.478v-5.038h-2.061v-3.664h2.061v-7.263h4.384v7.263h3.565v3.664h-3.565v5.169c0,1.407,0.458,1.701,1.146,1.701
		c0.719,0,1.242-0.393,1.537-0.589l1.668,3.075c-0.687,0.556-1.864,1.276-3.893,1.276C531.816,50.072,529.788,48.665,529.788,44.478
		z"/>
	<path d="M540.942,26.092h4.416v11.875c0.851-1.603,2.389-2.486,4.318-2.486c3.043,0,5.234,2.225,5.234,6.183v8.048h-4.416v-7.753
		c0-1.57-0.753-2.454-2.323-2.454c-1.767,0-2.813,0.981-2.813,2.748v7.459h-4.416V26.092z"/>
</g>
<g id="Repurchase">
	<path d="M372.894,488.029h-5.3l-3.664-5.627c-0.425,0.065-0.883,0.098-1.309,0.098h-1.57v5.529h-4.58v-22.246h6.15
		c6.216,0,9.945,2.977,9.945,8.408c0,3.467-1.538,5.659-4.286,6.902L372.894,488.029z M362.49,478.509
		c3.729,0,5.365-1.178,5.365-4.318s-1.701-4.385-5.365-4.385h-1.439v8.703H362.49z"/>
	<path d="M382.607,484.66c1.603,0,2.813-0.622,3.5-1.113l2.519,2.716c-1.341,1.178-3.042,2.062-5.954,2.062
		c-4.973,0-8.179-3.01-8.179-7.296c0-4.22,3.37-7.229,7.688-7.229c5.005,0,7.721,3.729,7.394,8.604h-10.567
		C379.434,483.841,380.611,484.66,382.607,484.66z M385.126,479.85c-0.196-1.538-1.178-2.454-2.912-2.454s-2.912,0.785-3.271,2.454
		H385.126z"/>
	<path d="M392.582,474.092h4.417l-0.098,2.159c0.851-1.505,2.323-2.453,4.482-2.453c3.37,0,6.216,2.943,6.216,7.229
		s-2.912,7.296-6.314,7.296c-2.126,0-3.566-0.884-4.286-2.16v8.801h-4.417V474.092z M403.051,481.028
		c0-2.062-1.178-3.337-3.042-3.337c-1.897,0-3.141,1.275-3.141,3.337c0,2.192,1.243,3.435,3.141,3.435
		C401.873,484.462,403.051,483.22,403.051,481.028z"/>
	<path d="M410.507,481.748v-7.655h4.417v7.558c0,1.896,0.654,2.911,2.388,2.911c1.767,0,2.421-1.015,2.421-2.911v-7.558h4.417v7.655
		c0,4.09-2.552,6.641-7.001,6.641C412.731,488.388,410.507,485.837,410.507,481.748z"/>
	<path d="M427.516,474.092h4.417l-0.066,2.519c1.015-2.289,2.65-2.812,4.09-2.812c0.916,0,1.604,0.262,2.159,0.556l-1.407,4.024
		c-0.556-0.262-1.079-0.426-1.701-0.426c-1.995,0-3.074,0.916-3.074,3.893v6.184h-4.417V474.092z"/>
	<path d="M439.357,481.028c0-4.22,3.271-7.229,7.623-7.229c2.78,0,4.449,1.014,5.855,2.78l-3.141,2.552
		c-0.523-0.851-1.604-1.473-2.715-1.473c-1.996,0-3.108,1.407-3.108,3.37c0,2.028,1.112,3.468,3.108,3.468
		c1.406,0,2.158-0.654,2.812-1.309l2.978,2.617c-1.374,1.537-3.01,2.52-5.79,2.52C442.628,488.324,439.357,485.314,439.357,481.028z
		"/>
	<path d="M455.45,464.409h4.417v11.876c0.85-1.604,2.388-2.486,4.318-2.486c3.042,0,5.234,2.225,5.234,6.183v8.048h-4.417v-7.754
		c0-1.57-0.753-2.453-2.323-2.453c-1.766,0-2.812,0.981-2.812,2.748v7.459h-4.417V464.409z"/>
	<path d="M472.328,481.028c0-4.22,2.716-7.229,6.217-7.229c2.094,0,3.467,0.883,4.252,2.388l-0.064-2.094h4.383v13.937h-4.383
		l0.064-2.127c-0.719,1.407-2.191,2.422-4.318,2.422C475.142,488.324,472.328,485.314,472.328,481.028z M482.796,481.028
		c0-2.062-1.079-3.337-2.977-3.337c-1.865,0-2.912,1.275-2.912,3.337c0,2.126,1.047,3.435,2.912,3.435
		C481.717,484.462,482.796,483.154,482.796,481.028z"/>
	<path d="M489.566,485.673l2.584-2.29c0.949,0.916,2.16,1.472,3.469,1.472c1.439,0,1.896-0.262,1.896-0.85
		c0-0.753-0.883-0.753-3.141-1.342c-1.896-0.49-4.023-1.537-4.023-4.449c0-3.141,2.421-4.416,5.398-4.416
		c2.289,0,3.926,0.752,5.07,1.93l-2.355,2.52c-0.654-0.557-1.636-1.047-2.683-1.047c-1.015,0-1.505,0.262-1.505,0.817
		c0,0.785,0.883,0.884,2.781,1.309c2.027,0.458,4.58,1.407,4.58,4.351c0,2.553-1.342,4.646-5.726,4.646
		C492.673,488.324,490.777,487.113,489.566,485.673z"/>
	<path d="M511.973,484.66c1.603,0,2.813-0.622,3.501-1.113l2.519,2.716c-1.341,1.178-3.042,2.062-5.954,2.062
		c-4.973,0-8.179-3.01-8.179-7.296c0-4.22,3.37-7.229,7.688-7.229c5.005,0,7.721,3.729,7.393,8.604h-10.566
		C508.8,483.841,509.978,484.66,511.973,484.66z M514.492,479.85c-0.195-1.538-1.178-2.454-2.911-2.454s-2.911,0.785-3.271,2.454
		H514.492z"/>
</g>
<g id="Satisfaction">
	<path d="M592.373,120.78l3.729-2.159c0.981,1.603,2.257,2.781,4.515,2.781c1.897,0,3.107-0.949,3.107-2.257
		c0-1.57-1.243-2.126-3.337-3.042l-1.145-0.491c-3.305-1.407-5.496-3.173-5.496-6.903c0-3.435,2.617-6.052,6.706-6.052
		c2.912,0,5.006,1.014,6.511,3.664l-3.566,2.29c-0.785-1.407-1.636-1.963-2.944-1.963c-1.341,0-2.191,0.851-2.191,1.963
		c0,1.374,0.851,1.93,2.813,2.781l1.145,0.491c3.894,1.668,6.085,3.37,6.085,7.197c0,4.122-3.238,6.379-7.59,6.379
		C596.461,125.458,593.713,123.43,592.373,120.78z"/>
	<path d="M610.821,118.163c0-4.22,2.715-7.23,6.216-7.23c2.094,0,3.468,0.883,4.253,2.388l-0.065-2.094h4.384v13.937h-4.384
		l0.065-2.126c-0.72,1.407-2.192,2.421-4.318,2.421C613.634,125.458,610.821,122.448,610.821,118.163z M621.29,118.163
		c0-2.061-1.08-3.337-2.978-3.337c-1.864,0-2.911,1.276-2.911,3.337c0,2.126,1.047,3.435,2.911,3.435
		C620.209,121.598,621.29,120.289,621.29,118.163z"/>
	<path d="M630.414,119.929v-5.038h-2.061v-3.664h2.061v-7.263h4.384v7.263h3.566v3.664h-3.566v5.169
		c0,1.407,0.458,1.701,1.146,1.701c0.72,0,1.243-0.393,1.537-0.589l1.669,3.075c-0.688,0.556-1.865,1.276-3.894,1.276
		C632.442,125.523,630.414,124.117,630.414,119.929z"/>
	<path d="M640.979,106.124c0-1.603,1.309-2.748,2.813-2.748s2.78,1.145,2.78,2.748c0,1.636-1.275,2.781-2.78,2.781
		S640.979,107.759,640.979,106.124z M641.568,111.227h4.416v13.937h-4.416V111.227z"/>
	<path d="M648.6,122.808l2.584-2.29c0.949,0.916,2.159,1.472,3.468,1.472c1.439,0,1.897-0.262,1.897-0.851
		c0-0.752-0.883-0.752-3.141-1.341c-1.897-0.491-4.023-1.538-4.023-4.449c0-3.141,2.421-4.417,5.397-4.417
		c2.29,0,3.926,0.752,5.071,1.93l-2.355,2.519c-0.654-0.556-1.636-1.047-2.683-1.047c-1.015,0-1.505,0.262-1.505,0.818
		c0,0.785,0.883,0.883,2.78,1.309c2.028,0.458,4.58,1.407,4.58,4.351c0,2.552-1.341,4.646-5.725,4.646
		C651.708,125.458,649.81,124.248,648.6,122.808z"/>
	<path d="M664.497,114.891h-2.322v-3.664h2.322v-4.678c0-3.599,1.701-5.431,5.137-5.431c1.963,0,3.271,0.589,4.285,1.767
		l-2.388,2.944c-0.327-0.393-0.72-0.752-1.407-0.752c-0.72,0-1.21,0.393-1.21,1.407v4.744h3.762v3.664h-3.762v10.272h-4.417V114.891
		z"/>
	<path d="M674.604,118.163c0-4.22,2.715-7.23,6.216-7.23c2.094,0,3.468,0.883,4.253,2.388l-0.065-2.094h4.384v13.937h-4.384
		l0.065-2.126c-0.72,1.407-2.192,2.421-4.318,2.421C677.417,125.458,674.604,122.448,674.604,118.163z M685.073,118.163
		c0-2.061-1.08-3.337-2.978-3.337c-1.864,0-2.911,1.276-2.911,3.337c0,2.126,1.047,3.435,2.911,3.435
		C683.993,121.598,685.073,120.289,685.073,118.163z"/>
	<path d="M692.365,118.163c0-4.22,3.271-7.23,7.622-7.23c2.781,0,4.449,1.014,5.856,2.781l-3.141,2.552
		c-0.523-0.851-1.604-1.472-2.716-1.472c-1.995,0-3.107,1.407-3.107,3.37c0,2.028,1.112,3.468,3.107,3.468
		c1.407,0,2.159-0.654,2.813-1.309l2.978,2.617c-1.374,1.538-3.01,2.519-5.791,2.519
		C695.636,125.458,692.365,122.448,692.365,118.163z"/>
	<path d="M709.799,119.929v-5.038h-2.062v-3.664h2.062v-7.263h4.384v7.263h3.566v3.664h-3.566v5.169
		c0,1.407,0.458,1.701,1.145,1.701c0.721,0,1.244-0.393,1.538-0.589l1.669,3.075c-0.688,0.556-1.865,1.276-3.894,1.276
		C711.828,125.523,709.799,124.117,709.799,119.929z"/>
	<path d="M720.365,106.124c0-1.603,1.309-2.748,2.813-2.748s2.78,1.145,2.78,2.748c0,1.636-1.275,2.781-2.78,2.781
		S720.365,107.759,720.365,106.124z M720.954,111.227h4.417v13.937h-4.417V111.227z"/>
	<path d="M728.508,118.228c0-4.253,3.37-7.295,7.688-7.295s7.654,3.042,7.654,7.295c0,4.22-3.336,7.23-7.654,7.23
		S728.508,122.448,728.508,118.228z M739.337,118.228c0-2.094-1.178-3.5-3.141-3.5s-3.174,1.407-3.174,3.5
		c0,2.061,1.211,3.5,3.174,3.5S739.337,120.289,739.337,118.228z"/>
	<path d="M746.826,111.227h4.417l-0.099,2.29c0.852-1.668,2.486-2.584,4.417-2.584c3.042,0,5.234,2.225,5.234,6.183v8.048h-4.417
		v-7.753c0-1.57-0.752-2.454-2.322-2.454c-1.767,0-2.813,0.981-2.813,2.748v7.459h-4.417V111.227z"/>
</g>
<g id="Engagement">
	<path d="M649.2,247.639h14.722v4.024H653.78v7.066h8.931v3.926h-8.931v3.206h10.6v4.024H649.2V247.639z"/>
	<path d="M667.713,255.948h4.416l-0.098,2.29c0.851-1.668,2.486-2.584,4.416-2.584c3.043,0,5.234,2.225,5.234,6.183v8.048h-4.416
		v-7.753c0-1.57-0.753-2.454-2.323-2.454c-1.767,0-2.813,0.981-2.813,2.748v7.459h-4.416V255.948z"/>
	<path d="M684.69,273.712l3.107-2.421c0.981,1.211,2.127,2.159,4.122,2.159c2.028,0,3.305-1.21,3.305-3.762v-1.668
		c-0.753,1.276-2.192,2.159-4.318,2.159c-3.402,0-6.314-3.01-6.314-7.295s2.879-7.23,6.249-7.23c2.225,0,3.664,0.981,4.481,2.454
		l-0.098-2.159h4.416v13.904c0,5.3-3.468,7.295-7.524,7.295C688.419,277.147,686.26,275.838,684.69,273.712z M695.322,262.884
		c0-2.061-1.243-3.337-3.141-3.337c-1.864,0-3.042,1.276-3.042,3.337c0,2.192,1.178,3.435,3.042,3.435
		C694.079,266.319,695.322,265.076,695.322,262.884z"/>
	<path d="M702.647,262.884c0-4.22,2.715-7.23,6.216-7.23c2.094,0,3.468,0.883,4.253,2.388l-0.065-2.094h4.384v13.937h-4.384
		l0.065-2.126c-0.72,1.407-2.192,2.421-4.318,2.421C705.46,270.179,702.647,267.169,702.647,262.884z M713.116,262.884
		c0-2.061-1.08-3.337-2.978-3.337c-1.864,0-2.911,1.276-2.911,3.337c0,2.126,1.047,3.435,2.911,3.435
		C712.036,266.319,713.116,265.01,713.116,262.884z"/>
	<path d="M720.539,273.712l3.108-2.421c0.981,1.211,2.126,2.159,4.122,2.159c2.028,0,3.304-1.21,3.304-3.762v-1.668
		c-0.752,1.276-2.191,2.159-4.318,2.159c-3.402,0-6.313-3.01-6.313-7.295s2.879-7.23,6.248-7.23c2.225,0,3.664,0.981,4.482,2.454
		l-0.099-2.159h4.417v13.904c0,5.3-3.468,7.295-7.524,7.295C724.268,277.147,722.109,275.838,720.539,273.712z M731.171,262.884
		c0-2.061-1.243-3.337-3.141-3.337c-1.865,0-3.043,1.276-3.043,3.337c0,2.192,1.178,3.435,3.043,3.435
		C729.928,266.319,731.171,265.076,731.171,262.884z"/>
	<path d="M746.577,266.515c1.603,0,2.813-0.622,3.5-1.112l2.52,2.715c-1.342,1.178-3.043,2.061-5.954,2.061
		c-4.973,0-8.179-3.01-8.179-7.295c0-4.22,3.369-7.23,7.688-7.23c5.006,0,7.721,3.729,7.394,8.604h-10.566
		C743.403,265.697,744.581,266.515,746.577,266.515z M749.095,261.706c-0.196-1.538-1.178-2.454-2.911-2.454
		c-1.734,0-2.912,0.785-3.271,2.454H749.095z"/>
	<path d="M756.552,255.948h4.416l-0.098,2.159c0.981-1.701,2.29-2.454,3.958-2.454c1.8,0,3.075,0.752,3.926,2.388
		c1.146-1.439,2.683-2.388,4.743-2.388c3.501,0,5.529,2.323,5.529,6.15v8.081h-4.384v-7.688c0-1.636-0.523-2.519-2.192-2.519
		c-1.701,0-2.453,0.851-2.453,2.748v7.459h-4.384v-7.688c0-1.636-0.49-2.519-2.159-2.519c-1.701,0-2.486,0.851-2.486,2.748v7.459
		h-4.416V255.948z"/>
	<path d="M790.015,266.515c1.604,0,2.813-0.622,3.5-1.112l2.52,2.715c-1.342,1.178-3.043,2.061-5.954,2.061
		c-4.973,0-8.179-3.01-8.179-7.295c0-4.22,3.369-7.23,7.688-7.23c5.006,0,7.721,3.729,7.395,8.604h-10.567
		C786.841,265.697,788.019,266.515,790.015,266.515z M792.535,261.706c-0.197-1.538-1.178-2.454-2.912-2.454
		s-2.912,0.785-3.271,2.454H792.535z"/>
	<path d="M799.99,255.948h4.417l-0.099,2.29c0.852-1.668,2.486-2.584,4.417-2.584c3.042,0,5.234,2.225,5.234,6.183v8.048h-4.417
		v-7.753c0-1.57-0.752-2.454-2.322-2.454c-1.767,0-2.813,0.981-2.813,2.748v7.459h-4.417V255.948z"/>
	<path d="M818.504,264.65v-5.038h-2.062v-3.664h2.062v-7.263h4.384v7.263h3.566v3.664h-3.566v5.169c0,1.407,0.458,1.701,1.145,1.701
		c0.721,0,1.244-0.393,1.538-0.589l1.669,3.075c-0.688,0.556-1.865,1.276-3.894,1.276
		C820.533,270.245,818.504,268.838,818.504,264.65z"/>
</g>
<g id="Recommendation">
	<path id="recommendationR" d="M613.615,405.253h-5.299l-3.664-5.627c-0.426,0.065-0.884,0.099-1.309,0.099h-1.57v5.528h-4.58
		v-22.246h6.15c6.215,0,9.945,2.978,9.945,8.407c0,3.469-1.538,5.66-4.286,6.903L613.615,405.253z M603.212,395.733
		c3.729,0,5.365-1.178,5.365-4.318s-1.701-4.383-5.365-4.383h-1.439v8.701H603.212z"/>
	<path id="recommendationE_1_" d="M623.329,401.883c1.603,0,2.813-0.621,3.501-1.111l2.519,2.715
		c-1.341,1.178-3.042,2.061-5.954,2.061c-4.973,0-8.179-3.01-8.179-7.295c0-4.221,3.37-7.23,7.688-7.23
		c5.005,0,7.721,3.73,7.393,8.604H619.73C620.156,401.066,621.333,401.883,623.329,401.883z M625.847,397.075
		c-0.195-1.537-1.178-2.453-2.911-2.453s-2.911,0.785-3.271,2.453H625.847z"/>
	<path id="recommendationC" d="M632.813,398.252c0-4.221,3.271-7.23,7.622-7.23c2.781,0,4.449,1.015,5.856,2.781l-3.141,2.552
		c-0.523-0.851-1.603-1.472-2.716-1.472c-1.995,0-3.107,1.406-3.107,3.369c0,2.028,1.112,3.468,3.107,3.468
		c1.407,0,2.16-0.654,2.814-1.309l2.977,2.617c-1.374,1.538-3.01,2.519-5.791,2.519
		C636.084,405.547,632.813,402.538,632.813,398.252z"/>
	<path id="recommendationO" d="M648.088,398.318c0-4.253,3.37-7.296,7.688-7.296s7.654,3.043,7.654,7.296
		c0,4.22-3.336,7.229-7.654,7.229S648.088,402.538,648.088,398.318z M658.917,398.318c0-2.094-1.178-3.501-3.141-3.501
		s-3.174,1.407-3.174,3.501c0,2.062,1.211,3.501,3.174,3.501S658.917,400.379,658.917,398.318z"/>
	<path id="recommendationM1" d="M666.406,391.317h4.417l-0.099,2.159c0.982-1.701,2.291-2.454,3.959-2.454
		c1.799,0,3.075,0.753,3.926,2.389c1.145-1.439,2.683-2.389,4.744-2.389c3.5,0,5.528,2.323,5.528,6.15v8.081h-4.384v-7.688
		c0-1.635-0.523-2.519-2.191-2.519c-1.701,0-2.454,0.851-2.454,2.748v7.459h-4.384v-7.688c0-1.635-0.49-2.519-2.159-2.519
		c-1.701,0-2.486,0.851-2.486,2.748v7.459h-4.417V391.317z"/>
	<path id="recommendationM" d="M692.247,391.317h4.417l-0.099,2.159c0.981-1.701,2.29-2.454,3.958-2.454
		c1.8,0,3.076,0.753,3.926,2.389c1.146-1.439,2.684-2.389,4.744-2.389c3.5,0,5.528,2.323,5.528,6.15v8.081h-4.384v-7.688
		c0-1.635-0.523-2.519-2.191-2.519c-1.701,0-2.453,0.851-2.453,2.748v7.459h-4.385v-7.688c0-1.635-0.49-2.519-2.158-2.519
		c-1.701,0-2.486,0.851-2.486,2.748v7.459h-4.417V391.317z"/>
	<path id="recommendationE" d="M725.709,401.883c1.604,0,2.813-0.621,3.5-1.111l2.52,2.715c-1.342,1.178-3.043,2.061-5.954,2.061
		c-4.973,0-8.179-3.01-8.179-7.295c0-4.221,3.369-7.23,7.688-7.23c5.006,0,7.721,3.73,7.395,8.604h-10.567
		C722.536,401.066,723.713,401.883,725.709,401.883z M728.229,397.075c-0.197-1.537-1.178-2.453-2.912-2.453
		s-2.912,0.785-3.271,2.453H728.229z"/>
	<path id="recommendationN1" d="M735.684,391.317h4.417l-0.099,2.29c0.852-1.669,2.486-2.585,4.417-2.585
		c3.042,0,5.234,2.225,5.234,6.184v8.048h-4.417V397.5c0-1.57-0.752-2.454-2.322-2.454c-1.767,0-2.813,0.981-2.813,2.748v7.459
		h-4.417V391.317z"/>
	<path id="recommendationD" d="M752.563,398.252c0-4.285,2.879-7.23,6.249-7.23c2.225,0,3.468,0.884,4.351,2.258v-11.646h4.417
		v23.62h-4.417l0.099-2.028c-0.785,1.473-2.257,2.322-4.384,2.322C755.475,405.547,752.563,402.538,752.563,398.252z
		 M763.293,398.252c0-2.061-1.242-3.337-3.141-3.337c-1.864,0-3.042,1.276-3.042,3.337c0,2.191,1.178,3.436,3.042,3.436
		C762.051,401.688,763.293,400.444,763.293,398.252z"/>
	<path id="recommendationA" d="M770.586,398.252c0-4.221,2.715-7.23,6.215-7.23c2.094,0,3.469,0.884,4.254,2.389l-0.066-2.094h4.385
		v13.937h-4.385l0.066-2.126c-0.721,1.406-2.192,2.42-4.318,2.42C773.399,405.547,770.586,402.538,770.586,398.252z
		 M781.055,398.252c0-2.061-1.08-3.337-2.978-3.337c-1.864,0-2.911,1.276-2.911,3.337c0,2.127,1.047,3.436,2.911,3.436
		C779.975,401.688,781.055,400.379,781.055,398.252z"/>
	<path id="recommendationT" d="M790.179,400.019v-5.038h-2.062v-3.664h2.062v-7.263h4.384v7.263h3.566v3.664h-3.566v5.169
		c0,1.407,0.458,1.701,1.145,1.701c0.721,0,1.244-0.393,1.538-0.589l1.669,3.075c-0.688,0.556-1.865,1.276-3.894,1.276
		C792.208,405.614,790.179,404.207,790.179,400.019z"/>
	<path id="recommendationI" d="M800.745,386.213c0-1.604,1.309-2.748,2.813-2.748s2.78,1.145,2.78,2.748
		c0,1.636-1.275,2.781-2.78,2.781S800.745,387.849,800.745,386.213z M801.333,391.317h4.417v13.937h-4.417V391.317z"/>
	<path id="recommendationo" d="M808.889,398.318c0-4.253,3.369-7.296,7.688-7.296s7.656,3.043,7.656,7.296
		c0,4.22-3.338,7.229-7.656,7.229S808.889,402.538,808.889,398.318z M819.717,398.318c0-2.094-1.178-3.501-3.141-3.501
		s-3.173,1.407-3.173,3.501c0,2.062,1.21,3.501,3.173,3.501S819.717,400.379,819.717,398.318z"/>
	<path id="recommendationN" d="M827.206,391.317h4.417l-0.099,2.29c0.852-1.669,2.486-2.585,4.417-2.585
		c3.042,0,5.234,2.225,5.234,6.184v8.048h-4.417V397.5c0-1.57-0.752-2.454-2.322-2.454c-1.767,0-2.813,0.981-2.813,2.748v7.459
		h-4.417V391.317z"/>
</g>
<path id="chain8" opacity="0.6" fill="#D31C1C" d="M333.931,120.395c1.078,1.219,4.458,2.953,6.099,1.859
	c21.609-14.734,48.026-24.192,74.297-27.281c3.167,8.083,7.006,11.976,15.578,13.135c10.424,1.409,20.047-5.927,21.457-16.346
	c1.408-10.42-5.924-20.046-16.346-21.456c-10.398-1.406-18.627,4.505-21.21,14.672c-20.333,2.084-50.917,9.459-79.542,29.209
	C332.842,115.203,332.618,119.161,333.931,120.395z M433.897,78.577c5.862,0.792,9.986,6.205,9.195,12.067
	c-0.793,5.862-6.207,9.986-12.068,9.193c-5.863-0.792-9.986-6.206-9.194-12.068C422.623,81.908,428.036,77.784,433.897,78.577z"/>
<path id="chain7" opacity="0.6" fill="#D31C1C" d="M263.873,234.259c1.623,0.099,5.24-1.065,5.627-2.999
	c4.861-25.698,16.854-51.066,33.245-71.826c7.954,3.476,13.422,3.514,20.304-1.728c8.367-6.375,9.984-18.366,3.613-26.731
	c-6.373-8.364-18.363-9.986-26.729-3.614c-8.347,6.359-9.985,16.357-4.624,25.373c-12.904,15.852-29.314,42.692-35.59,76.898
	C259.431,231.356,262.072,234.313,263.873,234.259z M304.989,134.001c4.704-3.585,11.449-2.674,15.034,2.031
	c3.585,4.706,2.673,11.451-2.032,15.035c-4.706,3.586-11.449,2.673-15.034-2.032S300.284,137.585,304.989,134.001z"/>
<path id="chain6" opacity="0.6" fill="#D31C1C" d="M294.847,364.311c1.218-1.078,2.953-4.459,1.859-6.1
	c-14.734-21.609-24.193-48.025-27.281-74.297c8.082-3.166,11.975-7.006,13.135-15.578c1.409-10.424-5.927-20.047-16.346-21.457
	c-10.422-1.408-20.047,5.923-21.457,16.345c-1.405,10.398,4.506,18.627,14.672,21.211c2.084,20.334,9.459,50.916,29.209,79.541
	C289.654,365.399,293.613,365.624,294.847,364.311z M253.029,264.344c0.79-5.861,6.205-9.986,12.066-9.194
	c5.861,0.792,9.986,6.207,9.193,12.067c-0.791,5.863-6.205,9.986-12.067,9.194S252.236,270.206,253.029,264.344z"/>
<path id="chain5" opacity="0.6" fill="#D31C1C" d="M408.71,434.37c0.099-1.624-1.064-5.242-2.998-5.629
	c-25.699-4.86-51.066-16.852-71.826-33.244c3.476-7.954,3.514-13.422-1.729-20.303c-6.375-8.367-18.365-9.984-26.73-3.615
	c-8.364,6.375-9.986,18.364-3.614,26.731c6.358,8.347,16.357,9.984,25.373,4.623c15.853,12.905,42.692,29.315,76.897,35.591
	C405.808,438.811,408.765,436.17,408.71,434.37z M308.453,393.252c-3.586-4.703-2.673-11.449,2.031-15.034
	c4.705-3.584,11.451-2.673,15.033,2.032c3.588,4.705,2.674,11.449-2.031,15.035C318.781,398.871,312.037,397.958,308.453,393.252z"
	/>
<path id="chain4" opacity="0.6" fill="#D31C1C" d="M538.763,403.395c-1.079-1.219-4.46-2.954-6.101-1.86
	c-21.608,14.735-48.025,24.193-74.296,27.281c-3.167-8.082-7.006-11.976-15.578-13.134c-10.424-1.408-20.047,5.926-21.458,16.345
	c-1.407,10.423,5.924,20.047,16.347,21.458c10.398,1.406,18.626-4.507,21.21-14.673c20.335-2.084,50.917-9.458,79.541-29.208
	C539.851,408.587,540.075,404.629,538.763,403.395z M438.795,445.213c-5.861-0.79-9.985-6.205-9.194-12.067
	c0.793-5.86,6.207-9.987,12.066-9.192c5.865,0.789,9.987,6.205,9.196,12.067C450.072,441.883,444.657,446.006,438.795,445.213z"/>
<path id="chain3" opacity="0.6" fill="#D31C1C" d="M608.822,289.532c-1.625-0.1-5.242,1.064-5.629,2.998
	c-4.86,25.698-16.852,51.066-33.244,71.826c-7.955-3.477-13.423-3.515-20.303,1.729c-8.367,6.375-9.986,18.365-3.615,26.73
	c6.374,8.364,18.363,9.986,26.73,3.613c8.348-6.357,9.984-16.357,4.623-25.373c12.906-15.852,29.316-42.691,35.591-76.896
	C613.263,292.434,610.623,289.477,608.822,289.532z M567.705,389.79c-4.703,3.586-11.449,2.673-15.035-2.032
	c-3.583-4.704-2.673-11.451,2.032-15.032c4.706-3.59,11.45-2.674,15.036,2.031C573.323,379.46,572.41,386.206,567.705,389.79z"/>
<path id="chain2" opacity="0.6" fill="#D31C1C" d="M577.847,159.479c-1.22,1.078-2.954,4.459-1.86,6.1
	c14.734,21.608,24.193,48.025,27.282,74.296c-8.084,3.167-11.977,7.006-13.135,15.579c-1.408,10.424,5.926,20.047,16.346,21.457
	c10.421,1.407,20.045-5.924,21.455-16.346c1.408-10.398-4.506-18.627-14.672-21.211c-2.082-20.334-9.458-50.917-29.207-79.541
	C583.041,158.391,579.082,158.167,577.847,159.479z M619.666,259.446c-0.79,5.861-6.205,9.986-12.068,9.194
	c-5.859-0.792-9.987-6.207-9.192-12.066c0.79-5.866,6.206-9.987,12.068-9.195C616.334,248.169,620.458,253.584,619.666,259.446z"/>
<path id="chain1" opacity="0.6" fill="#D31C1C" d="M463.984,89.42c-0.101,1.625,1.063,5.242,2.997,5.628
	c25.698,4.861,51.067,16.852,71.827,33.244c-3.477,7.956-3.515,13.423,1.729,20.303c6.375,8.367,18.365,9.985,26.73,3.614
	c8.363-6.374,9.984-18.362,3.612-26.729c-6.356-8.348-16.356-9.985-25.372-4.624c-15.852-12.907-42.692-29.316-76.896-35.591
	C466.886,84.978,463.928,87.619,463.984,89.42z M564.242,130.537c3.585,4.704,2.673,11.449-2.033,15.035
	c-4.703,3.583-11.451,2.673-15.032-2.032c-3.589-4.706-2.673-11.45,2.032-15.036C553.912,124.919,560.657,125.832,564.242,130.537z"
	/>
</svg>
