<svg version="1.1" id="Layer_1" xmlns="http://www.w3.org/2000/svg" xmlns:xlink="http://www.w3.org/1999/xlink" x="0px" y="0px"
	 width="100%" height="auto" viewBox="0 54.725 394.727 500" enable-background="new 0 54.725 394.727 500"
	 xml:space="preserve">
<path d="M351.909,54.715H42.802C19.2,54.715,0,73.916,0,97.518v414.411c0,23.602,19.2,42.803,42.803,42.803h309.12
	c23.604,0,42.804-19.201,42.804-42.803V97.531C394.726,73.921,375.518,54.715,351.909,54.715z M377.36,511.929
	c0,14.026-11.41,25.438-25.438,25.438H42.802c-14.026,0-25.437-11.41-25.437-25.438V97.518c0-14.027,11.411-25.438,25.437-25.438
	h309.106c14.035,0,25.451,11.417,25.451,25.451V511.929z"/>
<path d="M342.197,134.807h-47.593v-30.395c0-4.794-3.886-8.683-8.684-8.683H108.805c-4.795,0-8.685,3.889-8.685,8.683v30.395H52.542
	c-4.796,0-8.684,3.887-8.684,8.682v336.688c0,4.797,3.888,8.685,8.684,8.685h289.655c4.798,0,8.683-3.888,8.683-8.685V143.489
	C350.88,138.694,346.994,134.807,342.197,134.807z M117.487,113.096L117.487,113.096h159.751v30.393
	c0,14.089-11.462,25.55-25.549,25.55H143.052c-14.096,0-25.564-11.46-25.564-25.55V113.096L117.487,113.096z M61.223,471.494
	V152.172h39.78c4.027,19.517,21.35,34.234,42.047,34.234h108.638c20.69,0,38.007-14.718,42.03-34.234h39.796v319.324H61.223V471.494
	z"/>
<path d="M142.949,193.642H93.168c-4.795,0-8.682,3.888-8.682,8.682v49.782c0,4.795,3.887,8.683,8.682,8.683h49.782
	c4.795,0,8.684-3.888,8.684-8.683v-49.782C151.634,197.53,147.745,193.642,142.949,193.642z M134.266,243.424H101.85v-32.417h32.416
	V243.424z"/>
<path d="M295.77,243.424H177.681c-4.795,0-8.684,3.889-8.684,8.684c0,4.794,3.888,8.682,8.684,8.682H295.77
	c4.795,0,8.683-3.888,8.683-8.682C304.453,247.313,300.565,243.424,295.77,243.424z"/>
<path d="M142.949,279.314H93.168c-4.795,0-8.682,3.888-8.682,8.683v49.781c0,4.795,3.887,8.683,8.682,8.683h49.782
	c4.795,0,8.684-3.888,8.684-8.683v-49.781C151.634,283.201,147.745,279.314,142.949,279.314z M134.266,329.096H101.85V296.68h32.416
	V329.096z"/>
<path d="M295.77,329.096H177.681c-4.795,0-8.684,3.89-8.684,8.683c0,4.795,3.888,8.683,8.684,8.683H295.77
	c4.795,0,8.683-3.888,8.683-8.683C304.453,332.986,300.565,329.096,295.77,329.096z"/>
<path d="M142.949,364.984H93.168c-4.795,0-8.682,3.888-8.682,8.685v49.782c0,4.795,3.887,8.682,8.682,8.682h49.782
	c4.795,0,8.684-3.887,8.684-8.682v-49.782C151.634,368.871,147.745,364.984,142.949,364.984z M134.266,414.768H101.85v-32.417
	h32.416V414.768z"/>
<path d="M295.77,414.768H177.681c-4.795,0-8.684,3.887-8.684,8.683c0,4.795,3.888,8.682,8.684,8.682H295.77
	c4.795,0,8.683-3.887,8.683-8.682C304.453,418.655,300.565,414.768,295.77,414.768z"/>
</svg>
