<svg version="1.1" id="Layer_1" xmlns="http://www.w3.org/2000/svg" xmlns:xlink="http://www.w3.org/1999/xlink" x="0px" y="0px"
	 width="100%" height="auto" viewBox="0 54.725 515.962 500" enable-background="new 0 54.725 515.962 500"
	 xml:space="preserve">
<path d="M515.962,432.386V54.725H0v377.661h175.535v63.83h-34.187l-29.256,58.512H403.87l-29.255-58.512h-39.506v-63.83H515.962z
	 M15.958,70.682h484.046V209.25l-49.091-25.056c0.799-3.127,1.218-6.394,1.218-9.787c0-21.998-17.896-39.894-39.895-39.894
	c-21.998,0-39.893,17.896-39.893,39.894c0,4.219,0.699,8.433,2.041,12.476l-43.909,25.02c-7.458-8.506-18.353-13.559-29.944-13.559
	c-12.581,0-24.347,6.024-31.747,15.778l-51.867-24.772c0.767-3.123,1.168-6.358,1.168-9.624c0-21.998-17.895-39.894-39.895-39.894
	c-21.998,0-39.895,17.895-39.895,39.894c0,3.464,0.49,6.943,1.407,10.324L15.958,251.923V70.682z M436.175,174.406
	c0,3.7-0.778,7.091-2.312,10.085l-0.134,0.274c-3.838,8.25-12.273,13.579-21.491,13.579c-8.577,0-16.517-4.606-20.717-12.018
	l-0.005-0.008c-2.102-3.702-3.214-7.819-3.214-11.911c0-13.198,10.739-23.937,23.937-23.937
	C425.434,150.47,436.175,161.208,436.175,174.406z M324.471,238.237c0,13.199-10.739,23.938-23.938,23.938
	c-13.198,0-23.936-10.738-23.936-23.938c0-3.609,0.802-7.086,2.418-10.403c3.908-8.221,12.351-13.532,21.518-13.532
	c8.58,0,16.517,4.604,20.72,12.019l0.003,0.007C323.358,230.027,324.471,234.144,324.471,238.237z M202.129,179.726
	c0,4.041-0.986,7.976-2.864,11.408c-4.192,7.728-12.267,12.528-21.073,12.528c-9.139,0-17.324-5.065-21.36-13.221l-0.015-0.029
	c-1.676-3.351-2.562-7.048-2.562-10.687c0-13.198,10.737-23.937,23.937-23.937S202.129,166.528,202.129,179.726z M15.958,269.762
	l130.854-65.427c7.433,9.575,18.869,15.284,31.381,15.284c12.657,0,24.399-5.971,31.862-15.865l51.811,24.744
	c-0.805,3.162-1.225,6.415-1.225,9.737c0,21.999,17.895,39.894,39.895,39.894c21.998,0,39.893-17.894,39.893-39.893
	c0-4.218-0.7-8.433-2.042-12.476l43.911-25.019c7.457,8.505,18.352,13.558,29.941,13.558c12.593,0,24.318-5.994,31.702-15.752
	l56.065,28.616v104.159H15.958V269.762z M364.753,512.176l13.298,26.596H137.91l13.298-26.596h144.007v-15.958H191.491v-63.83
	h127.66v79.788H364.753L364.753,512.176z M15.958,416.43v-69.151h484.046v69.151H15.958L15.958,416.43z"/>
<polygon points="212.122,97.278 188.509,120.891 199.792,132.177 218.732,113.236 268.619,113.236 268.619,97.278 "/>
<rect x="289.897" y="97.278" width="74.467" height="15.958"/>
<rect x="289.897" y="129.193" width="58.51" height="15.958"/>
<rect x="289.897" y="161.109" width="21.276" height="15.957"/>
<rect x="210.108" y="373.876" width="95.746" height="15.958"/>
<rect x="321.81" y="373.876" width="21.277" height="15.958"/>
<rect x="172.873" y="373.876" width="21.276" height="15.958"/>
</svg>
