<?xml version="1.0" encoding="utf-8"?>
<!-- Generator: Adobe Illustrator 16.0.0, SVG Export Plug-In . SVG Version: 6.00 Build 0)  -->
<!DOCTYPE svg PUBLIC "-//W3C//DTD SVG 1.1//EN" "http://www.w3.org/Graphics/SVG/1.1/DTD/svg11.dtd">
<svg version="1.1" id="Layer_1" xmlns="http://www.w3.org/2000/svg" xmlns:xlink="http://www.w3.org/1999/xlink" x="0px" y="0px"
	 width="887.956px" height="539.974px" viewBox="0 0 887.956 539.974" enable-background="new 0 0 887.956 539.974"
	 xml:space="preserve">
<path id="chain8" opacity="0.6" fill="#D31C1C" d="M333.931,138.396c1.078,1.219,4.458,2.953,6.099,1.859
	c21.609-14.734,48.026-24.192,74.297-27.281c3.167,8.083,7.006,11.976,15.578,13.135c10.424,1.409,20.047-5.927,21.457-16.346
	c1.408-10.42-5.924-20.046-16.346-21.456c-10.398-1.406-18.627,4.505-21.21,14.672c-20.333,2.084-50.917,9.459-79.542,29.209
	C332.842,133.203,332.618,137.161,333.931,138.396z M433.897,96.577c5.862,0.792,9.986,6.205,9.195,12.067
	c-0.793,5.862-6.207,9.986-12.068,9.193c-5.863-0.792-9.986-6.206-9.194-12.068C422.623,99.908,428.036,95.784,433.897,96.577z"/>
<path id="chain7" opacity="0.6" fill="#D31C1C" d="M263.873,252.259c1.623,0.099,5.24-1.065,5.627-2.999
	c4.861-25.698,16.854-51.066,33.245-71.826c7.954,3.476,13.422,3.514,20.304-1.728c8.367-6.375,9.984-18.366,3.613-26.731
	c-6.373-8.364-18.363-9.986-26.729-3.614c-8.347,6.359-9.985,16.357-4.624,25.373c-12.904,15.852-29.314,42.692-35.59,76.898
	C259.431,249.357,262.072,252.314,263.873,252.259z M304.989,152.002c4.704-3.585,11.449-2.674,15.034,2.031
	c3.585,4.706,2.673,11.451-2.032,15.035c-4.706,3.586-11.449,2.673-15.034-2.032S300.284,155.586,304.989,152.002z"/>
<path id="chain6" opacity="0.6" fill="#D31C1C" d="M294.847,382.312c1.218-1.078,2.953-4.459,1.859-6.1
	c-14.734-21.609-24.193-48.025-27.281-74.297c8.082-3.166,11.975-7.006,13.135-15.578c1.409-10.424-5.927-20.047-16.346-21.457
	c-10.422-1.408-20.047,5.923-21.457,16.345c-1.405,10.398,4.506,18.627,14.672,21.211c2.084,20.334,9.459,50.916,29.209,79.541
	C289.654,383.399,293.613,383.624,294.847,382.312z M253.029,282.345c0.79-5.861,6.205-9.986,12.066-9.194
	c5.861,0.792,9.986,6.207,9.193,12.067c-0.791,5.863-6.205,9.986-12.067,9.194S252.236,288.206,253.029,282.345z"/>
<path id="chain5" opacity="0.6" fill="#D31C1C" d="M408.71,452.37c0.099-1.624-1.064-5.242-2.998-5.629
	c-25.699-4.86-51.066-16.852-71.826-33.244c3.476-7.954,3.514-13.422-1.729-20.303c-6.375-8.367-18.365-9.984-26.73-3.615
	c-8.364,6.375-9.986,18.364-3.614,26.731c6.358,8.347,16.357,9.984,25.373,4.623c15.853,12.905,42.692,29.315,76.897,35.591
	C405.808,456.812,408.765,454.171,408.71,452.37z M308.453,411.253c-3.586-4.703-2.673-11.449,2.031-15.034
	c4.705-3.584,11.451-2.673,15.033,2.032c3.588,4.705,2.674,11.449-2.031,15.035C318.781,416.871,312.037,415.958,308.453,411.253z"
	/>
<path id="chain4" opacity="0.6" fill="#D31C1C" d="M538.763,421.396c-1.079-1.219-4.46-2.954-6.101-1.86
	c-21.608,14.735-48.025,24.193-74.296,27.281c-3.167-8.082-7.006-11.976-15.578-13.134c-10.424-1.408-20.047,5.926-21.458,16.345
	c-1.407,10.423,5.924,20.047,16.347,21.458c10.398,1.406,18.626-4.507,21.21-14.673c20.335-2.084,50.917-9.458,79.541-29.208
	C539.851,426.588,540.075,422.63,538.763,421.396z M438.795,463.214c-5.861-0.79-9.985-6.205-9.194-12.067
	c0.793-5.86,6.207-9.987,12.066-9.192c5.865,0.789,9.987,6.205,9.196,12.067C450.072,459.884,444.657,464.007,438.795,463.214z"/>
<path id="chain3" opacity="0.6" fill="#D31C1C" d="M608.822,307.532c-1.625-0.1-5.242,1.064-5.629,2.998
	c-4.86,25.698-16.852,51.066-33.244,71.826c-7.955-3.477-13.423-3.515-20.303,1.729c-8.367,6.375-9.986,18.365-3.615,26.73
	c6.374,8.364,18.363,9.986,26.73,3.613c8.348-6.357,9.984-16.357,4.623-25.373c12.906-15.852,29.316-42.691,35.591-76.896
	C613.263,310.435,610.623,307.478,608.822,307.532z M567.705,407.79c-4.703,3.586-11.449,2.673-15.035-2.032
	c-3.583-4.704-2.673-11.451,2.032-15.032c4.706-3.59,11.45-2.674,15.036,2.031C573.323,397.461,572.41,404.206,567.705,407.79z"/>
<path id="chain2" opacity="0.6" fill="#D31C1C" d="M577.847,177.479c-1.22,1.078-2.954,4.459-1.86,6.1
	c14.734,21.608,24.193,48.025,27.282,74.296c-8.084,3.167-11.977,7.006-13.135,15.579c-1.408,10.424,5.926,20.047,16.346,21.457
	c10.421,1.407,20.045-5.924,21.455-16.346c1.408-10.398-4.506-18.627-14.672-21.211c-2.082-20.334-9.458-50.917-29.207-79.541
	C583.041,176.391,579.082,176.167,577.847,177.479z M619.666,277.446c-0.79,5.861-6.205,9.986-12.068,9.194
	c-5.859-0.792-9.987-6.207-9.192-12.066c0.79-5.866,6.206-9.987,12.068-9.195C616.334,266.17,620.458,271.585,619.666,277.446z"/>
<path id="chain1" opacity="0.6" fill="#D31C1C" d="M463.984,107.42c-0.101,1.625,1.063,5.242,2.997,5.628
	c25.698,4.861,51.067,16.852,71.827,33.244c-3.477,7.956-3.515,13.423,1.729,20.303c6.375,8.367,18.365,9.985,26.73,3.614
	c8.363-6.374,9.984-18.362,3.612-26.729c-6.356-8.348-16.356-9.985-25.372-4.624c-15.852-12.907-42.692-29.316-76.896-35.591
	C466.886,102.979,463.928,105.619,463.984,107.42z M564.242,148.538c3.585,4.704,2.673,11.449-2.033,15.035
	c-4.703,3.583-11.451,2.673-15.032-2.032c-3.589-4.706-2.673-11.45,2.032-15.036C553.912,142.919,560.657,143.832,564.242,148.538z"
	/>
<text transform="matrix(1 0 0 1 329.8555 40.4512)"><tspan x="0" y="0" font-family="'NeutraText-BoldAlt'" font-size="32.5908">Momento de la</tspan><tspan x="53.024" y="33.109" font-family="'NeutraText-BoldAlt'" font-size="32.5908">Verdad</tspan></text>
<text transform="matrix(1 0 0 1 589.7075 148.4302)" font-family="'NeutraText-BoldAlt'" font-size="32.5908">Satisfacci贸n</text>
<text transform="matrix(1 0 0 1 640.3823 291.0977)" font-family="'NeutraText-BoldAlt'" font-size="32.5908">Compromiso</text>
<text transform="matrix(1 0 0 1 595.146 421.4307)" font-family="'NeutraText-BoldAlt'" font-size="32.5908">Recomendaci贸n</text>
<text transform="matrix(1 0 0 1 363.1455 507.4307)" font-family="'NeutraText-BoldAlt'" font-size="32.5908">Recompra</text>
<text transform="matrix(1 0 0 1 85.3545 421.4307)" font-family="'NeutraText-BoldAlt'" font-size="32.5908">Conocimiento</text>
<text transform="matrix(1 0 0 1 24.2422 291.0967)" font-family="'NeutraText-BoldAlt'" font-size="32.5908">Consideraci贸n</text>
<text transform="matrix(1 0 0 1 133.5327 148.4307)" font-family="'NeutraText-BoldAlt'" font-size="32.5908">Evaluaci贸n</text>
</svg>
