<?xml version="1.0" encoding="iso-8859-1"?>
<!-- Generator: Adobe Illustrator 19.0.0, SVG Export Plug-In . SVG Version: 6.00 Build 0)  -->
<svg version="1.1" id="Layer_1" xmlns="http://www.w3.org/2000/svg" xmlns:xlink="http://www.w3.org/1999/xlink" x="0px" y="0px"
	 viewBox="0 0 512 512" style="enable-background:new 0 0 512 512;" xml:space="preserve">
<g>
	<g>
		<path d="M411.148,376.946c-5.867-3.173-12.981-2.868-18.567,0.799c-20.746,13.628-41.569,20.538-61.888,20.538
			c-10.276,0-19.055-2.271-26.921-6.992c-4.35-2.559-7.061-5.571-8.517-9.441c-0.755-2.03-3.215-11.401-3.215-46.78V231.179h94.731
			c9.995,0,18.128-8.132,18.128-18.128V138.36c0-9.995-8.132-18.128-18.128-18.128h-94.731V18.128C292.041,8.132,283.91,0,273.914,0
			h-67.689c-9.136,0-16.871,6.838-17.987,15.902c-2.766,22.349-7.761,40.743-14.854,54.693
			c-6.905,13.654-16.211,25.507-27.674,35.243c-11.411,9.731-25.48,17.342-41.815,22.622c-7.51,2.427-12.554,9.36-12.554,17.251
			v67.342c0,9.995,8.131,18.128,18.127,18.128h34.47v148.756c0,24.302,2.652,42.768,8.103,56.44
			c5.621,14.159,15.567,27.454,29.578,39.526c13.585,11.663,30.044,20.727,48.913,26.937c18.43,6.078,39.737,9.159,63.332,9.159
			c20.47,0,39.844-2.103,57.591-6.253c17.714-4.15,37.503-11.359,58.817-21.425c6.311-2.978,10.389-9.413,10.389-16.392v-75.017
			C420.669,386.233,417.025,380.116,411.148,376.946z M400.262,466.49c-19.517,9.134-37.496,15.659-53.454,19.398
			c-16.222,3.792-34.036,5.715-52.944,5.715c-21.42,0-40.579-2.736-56.949-8.135c-16.326-5.373-30.459-13.125-41.995-23.028
			c-11.477-9.89-19.525-20.518-23.925-31.601c-4.479-11.237-6.658-27.233-6.658-48.9V220.982c0-5.633-4.567-10.199-10.199-10.199
			h-42.398h-0.001v-63.43c18.24-6.092,34.116-14.832,47.191-25.98c13.532-11.493,24.52-25.481,32.648-41.553
			c7.938-15.613,13.537-35.595,16.651-59.422h63.417v110.034c0,5.633,4.567,10.199,10.199,10.199h102.66v70.151h-102.66
			c-5.632,0-10.199,4.566-10.199,10.199v114.089c0,28.125,1.469,45.751,4.507,53.924c3.115,8.278,8.929,14.967,17.204,19.833
			c11.048,6.632,23.261,9.854,37.339,9.854c23.184,0,46.571-7.275,69.568-21.633V466.49z"/>
	</g>
</g>
<g>
	<g>
		<path d="M185.625,277.418c-5.632,0-10.199,4.566-10.199,10.199v3.06c0,5.633,4.567,10.199,10.199,10.199
			c5.632,0,10.199-4.566,10.199-10.199v-3.06C195.825,281.984,191.257,277.418,185.625,277.418z"/>
	</g>
</g>
<g>
	<g>
		<path d="M185.625,314.135c-5.632,0-10.199,4.566-10.199,10.199v71.394c0,5.633,4.567,10.199,10.199,10.199
			c5.632,0,10.199-4.566,10.199-10.199v-71.394C195.825,318.702,191.257,314.135,185.625,314.135z"/>
	</g>
</g>
<g>
</g>
<g>
</g>
<g>
</g>
<g>
</g>
<g>
</g>
<g>
</g>
<g>
</g>
<g>
</g>
<g>
</g>
<g>
</g>
<g>
</g>
<g>
</g>
<g>
</g>
<g>
</g>
<g>
</g>
</svg>
