<?xml version="1.0" encoding="utf-8"?>
<!-- Generator: Adobe Illustrator 16.0.0, SVG Export Plug-In . SVG Version: 6.00 Build 0)  -->
<!DOCTYPE svg PUBLIC "-//W3C//DTD SVG 1.1//EN" "http://www.w3.org/Graphics/SVG/1.1/DTD/svg11.dtd">
<svg version="1.1" id="Layer_1" xmlns="http://www.w3.org/2000/svg" xmlns:xlink="http://www.w3.org/1999/xlink" x="0px" y="0px"
	 width="641.967px" height="530.973px" viewBox="0 0 641.967 530.973" enable-background="new 0 0 641.967 530.973"
	 xml:space="preserve">
<path fill="none" stroke="#000000" stroke-miterlimit="10" d="M16.393,359.39"/>
<g>
	<polygon fill="none" stroke="#000000" stroke-miterlimit="10" points="325.393,205.82 16.393,93.39 325.393,11.39 636.393,93.39 	
		"/>
	<line fill="none" stroke="#000000" stroke-miterlimit="10" x1="399.06" y1="363.723" x2="325.393" y2="390.82"/>
	<line fill="none" stroke="#000000" stroke-miterlimit="10" x1="325.393" y1="390.82" x2="251.56" y2="364.391"/>
	<polygon fill="none" stroke="#000000" stroke-miterlimit="10" points="252.893,364.89 15.893,279.89 15.31,94.015 252.862,179.453 
			"/>
	<polygon fill="none" stroke="#000000" stroke-miterlimit="10" points="398.893,363.89 635.893,278.89 636.143,93.557 
		398.893,179.391 	"/>
	<line fill="none" stroke="#000000" stroke-miterlimit="10" x1="117.893" y1="130.39" x2="117.893" y2="316.39"/>
	<line fill="none" stroke="#000000" stroke-miterlimit="10" x1="513.893" y1="137.39" x2="513.893" y2="322.39"/>
</g>
<text transform="matrix(1 0 0 1 133.8613 455.8813)" font-family="'Quicksand-Bold'" font-size="47.0541">User Experience</text>
<text transform="matrix(1 0 0 1 132.8252 94.3994)" font-family="'Quicksand-Bold'" font-size="35">User-Centered Design</text>
<text transform="matrix(1 0 0 1 18.3301 183.0605)"><tspan x="0" y="0" font-family="'Quicksand-Bold'" font-size="22">Product</tspan><tspan x="0" y="26.4" font-family="'Quicksand-Bold'" font-size="22">Strategy</tspan></text>
<text transform="matrix(1 0 0 1 134.3242 259.3911)"><tspan x="0" y="0" font-family="'Quicksand-Bold'" font-size="22">User</tspan><tspan x="0" y="26.4" font-family="'Quicksand-Bold'" font-size="22">Research</tspan></text>
<text transform="matrix(1 0 0 1 263.3179 245.8916)"><tspan x="0" y="0" font-family="'Quicksand-Bold'" font-size="22">Design</tspan><tspan x="0" y="26.4" font-family="'Quicksand-Bold'" font-size="22">-Interaction</tspan><tspan x="0" y="52.8" font-family="'Quicksand-Bold'" font-size="22">-UI</tspan><tspan x="0" y="79.2" font-family="'Quicksand-Bold'" font-size="22">-Visual</tspan></text>
<text transform="matrix(1 0 0 1 407.311 257.8901)"><tspan x="0" y="0" font-family="'Quicksand-Bold'" font-size="22">Usability</tspan><tspan x="0" y="26.4" font-family="'Quicksand-Bold'" font-size="22">Testing</tspan></text>
<text transform="matrix(1 0 0 1 532.231 193.2695)"><tspan x="0" y="0" font-family="'Quicksand-Bold'" font-size="22">Dev</tspan><tspan x="0" y="26.4" font-family="'Quicksand-Bold'" font-size="22">-Front &amp;</tspan><tspan x="0" y="52.8" font-family="'Quicksand-Bold'" font-size="22">-Back</tspan></text>
<text transform="matrix(1 0 0 1 201.8677 489.23)"><tspan x="0" y="0" font-family="'NeutraDisp-Bold'" font-size="28.3013">End to end experience a </tspan><tspan x="-16.967" y="27.962" font-family="'NeutraDisp-Bold'" font-size="28.3013">customer has with a business</tspan></text>
<text transform="matrix(1 0 0 1 175.1689 130.748)"><tspan x="0" y="0" font-family="'NeutraDisp-Bold'" font-size="24">Method requiring user-input through</tspan><tspan x="48.815" y="23.962" font-family="'NeutraDisp-Bold'" font-size="24"> all stages of product dev</tspan></text>
<g>
	
		<line fill="none" stroke="#000000" stroke-width="4" stroke-linecap="round" stroke-miterlimit="10" x1="128.393" y1="442.39" x2="19.393" y2="442.39"/>
	
		<line fill="none" stroke="#000000" stroke-width="4" stroke-linecap="round" stroke-miterlimit="10" x1="18.393" y1="430.39" x2="18.393" y2="455.39"/>
</g>
<g>
	
		<line fill="none" stroke="#000000" stroke-width="4" stroke-linecap="round" stroke-miterlimit="10" x1="525.393" y1="442.39" x2="634.393" y2="442.39"/>
	
		<line fill="none" stroke="#000000" stroke-width="4" stroke-linecap="round" stroke-miterlimit="10" x1="635.393" y1="430.39" x2="635.393" y2="455.39"/>
</g>
</svg>
